<svg width="223" height="512" viewBox="0 0 223 512" fill="#555555" xmlns="http://www.w3.org/2000/svg">
<path d="M176.5 351.5H108C102.5 351.5 50 351.5 44 351C38 350.5 35 347 29.5 331C24 315 4.50001 250 1.50001 202C-1.49999 154 -2.99999 103 29 54.5C61 6 106.5 0 124 0C141.5 0 208 1 218.5 103C229 205 215.5 216 201.5 271C187.5 326 191 333.5 190 340.5C189 347.5 179.5 351.5 176.5 351.5Z"/>
<path d="M176.5 385.5H113H44C38.5 385.5 32 393 32 400C32 407 26.8839 448.53 42.5 472.5C59.4484 498.515 78.5 512 111.5 512C144.5 512 164 495.5 180 472.5C196 449.5 190.5 410.5 190.5 400C190.5 389.5 181 385.5 176.5 385.5Z"/>
</svg>
