<svg width="340" height="165" viewBox="0 0 340 165" fill="none" xmlns="http://www.w3.org/2000/svg">
<path opacity="0.3" d="M33.6 113.8L29.6 114.4C29.3 114.4 26.2 114.9 25.8 114.9C25.4 114.9 25.2 114.7 24.8 113.8C24.3 112.9 22.7 109.2 22.1 106.4C21.5 103.6 21 100.6 22.5 97.5C24 94.4 26.6 93.7 27.7 93.5C28.7 93.4 32.7 92.9 34.1 98.8C35.5 104.7 34.8 105.5 34.5 108.9C34.1 112.3 34.4 112.7 34.4 113.1C34.3 113.4 33.8 113.8 33.6 113.8Z" fill="#555555"/>
<path opacity="0.3" d="M33.9 115.8L30.1 116.3L26 116.9C25.7 116.9 25.4 117.4 25.4 117.9C25.5 118.3 25.5 120.8 26.6 122.1C27.8 123.5 29 124.1 31 123.9C33 123.7 34 122.5 34.7 121C35.5 119.5 34.8 117.2 34.7 116.6C34.6 116 34.1 115.8 33.9 115.8Z" fill="#555555"/>
<path opacity="0.3" d="M49.1 96.8L44 96.2C43.6 96.2 39.7 95.7 39.3 95.6C38.9 95.5 38.7 95.2 38.4 94C38.1 92.8 37.2 87.8 37.4 84.2C37.6 80.6 37.9 76.8 40.6 73.5C43.3 70.2 46.8 70.1 48.1 70.2C49.4 70.3 54.3 71 54.3 78.6C54.3 86.2 53.1 87 51.6 91C50.1 95 50.3 95.6 50.2 96.1C50 96.6 49.3 96.8 49.1 96.8Z" fill="#555555"/>
<path opacity="0.3" d="M48.8 99.3L44.1 98.8L39 98.2C38.6 98.2 38 98.7 38 99.2C37.9 99.7 37.2 102.8 38.2 104.7C39.2 106.8 40.6 107.9 43 108.2C45.4 108.5 47 107.4 48.4 105.8C49.8 104.2 49.7 101.3 49.8 100.5C49.8 99.7 49.1 99.3 48.8 99.3Z" fill="#555555"/>
<path opacity="0.3" d="M64.5 63.3L60.8 62.3C60.5 62.2 57.6 61.5 57.3 61.3C57 61.2 56.9 61 56.8 60C56.7 59 56.6 55.2 57.1 52.6C57.6 49.9 58.3 47.1 60.7 45C63.1 42.8 65.7 43.2 66.7 43.4C67.7 43.6 71.3 44.7 70.3 50.4C69.4 56.1 68.5 56.5 66.9 59.3C65.3 62.1 65.4 62.5 65.3 62.9C65.2 63.3 64.7 63.3 64.5 63.3Z" fill="#555555"/>
<path opacity="0.3" d="M64 65.1L60.5 64.2L56.7 63.2C56.4 63.1 55.9 63.4 55.8 63.8C55.7 64.2 54.8 66.4 55.3 67.9C55.8 69.6 56.7 70.6 58.5 71C60.3 71.4 61.6 70.9 62.8 69.8C64 68.8 64.3 66.6 64.4 66C64.5 65.4 64.2 65.2 64 65.1Z" fill="#555555"/>
<path opacity="0.3" d="M83.9 40.3L82 35.5C81.8 35.1 80.4 31.5 80.3 31C80.2 30.6 80.3 30.3 81.3 29.4C82.3 28.6 86.2 25.4 89.5 23.9C92.7 22.4 96.2 20.9 100.5 21.7C104.7 22.6 106.4 25.6 106.9 26.8C107.4 28 109.1 32.7 102.4 36.2C95.6 39.7 94.5 39.1 90.3 39.6C86.1 40.1 85.7 40.6 85.2 40.7C84.6 41 84 40.5 83.9 40.3Z" fill="#555555"/>
<path opacity="0.3" d="M81.6 41.2L79.9 36.8L77.9 32C77.7 31.6 77 31.4 76.6 31.6C76.2 31.8 73.1 32.6 71.9 34.3C70.6 36.2 70.2 37.9 71.1 40.2C72 42.5 73.7 43.4 75.7 43.9C77.7 44.4 80.3 42.9 81 42.6C81.7 42.3 81.7 41.5 81.6 41.2Z" fill="#555555"/>
<path opacity="0.3" d="M99.1 107.7L95.9 108.6C95.6 108.7 93.2 109.3 92.9 109.4C92.6 109.5 92.4 109.3 92 108.7C91.5 108 89.8 105.3 89 103.1C88.2 100.9 87.5 98.6 88.4 95.9C89.3 93.2 91.3 92.4 92.1 92.2C92.9 92 96 91.2 97.8 95.8C99.6 100.4 99.1 101.1 99.2 103.8C99.3 106.5 99.5 106.8 99.6 107.2C99.6 107.4 99.2 107.7 99.1 107.7Z" fill="#555555"/>
<path opacity="0.3" d="M99.5 109.3L96.5 110.1L93.3 111C93 111.1 92.8 111.5 92.9 111.8C93 112.1 93.3 114.1 94.3 115C95.4 116 96.5 116.4 98 116C99.5 115.6 100.2 114.6 100.7 113.3C101.2 112 100.4 110.3 100.3 109.8C100.2 109.3 99.7 109.2 99.5 109.3Z" fill="#555555"/>
<path opacity="0.3" d="M93 147.8L87.9 147C87.5 146.9 83.6 146.3 83.2 146.2C82.8 146.1 82.6 145.8 82.4 144.6C82.2 143.4 81.5 138.3 81.9 134.8C82.2 131.2 82.7 127.4 85.7 124.2C88.6 121 92.1 121.1 93.3 121.3C94.6 121.5 99.5 122.4 99.1 130C98.7 137.6 97.6 138.3 95.9 142.2C94.2 146.1 94.4 146.7 94.2 147.2C93.9 147.7 93.2 147.8 93 147.8Z" fill="#555555"/>
<path opacity="0.3" d="M92.6 150.3L87.9 149.6L82.8 148.8C82.4 148.7 81.8 149.2 81.7 149.7C81.6 150.2 80.8 153.2 81.6 155.2C82.5 157.3 83.8 158.5 86.2 158.9C88.6 159.3 90.3 158.3 91.7 156.8C93.1 155.3 93.2 152.4 93.3 151.6C93.6 150.8 92.9 150.4 92.6 150.3Z" fill="#555555"/>
<path opacity="0.3" d="M48 113.8C48.3 113.7 48.8 113.8 51.4 112.4C54 111 54.5 110.3 59.9 109.7C65.3 109.1 66 112.5 66.2 113.4C66.4 114.3 66.6 116.7 64.4 118.9C62.3 121.1 59.6 121.6 57.1 121.9C54.6 122.3 51 122 50.2 121.9C49.4 121.8 49.1 121.7 49 121.4C48.9 121.1 48.3 118.4 48.3 118.1L47.5 114.6C47.6 114.5 47.7 114 48 113.8Z" fill="#555555"/>
<path opacity="0.3" d="M45 114.5C44.5 114.6 42.4 114.8 41.4 115.8C40.4 116.8 39.8 118.1 40.1 119.8C40.5 121.5 41.4 122.3 42.9 122.9C44.3 123.4 46.4 122.7 46.7 122.6C47 122.5 47.4 122.1 47.3 121.8L46.5 118.3L45.8 115C45.8 114.8 45.5 114.3 45 114.5Z" fill="#555555"/>
<path opacity="0.3" d="M78.6 116.1C78.3 115.9 78.1 115.5 75.3 114.4C72.5 113.3 71.7 113.5 67.7 109.8C63.8 106.1 65.8 103.3 66.4 102.6C67 101.9 68.7 100.1 71.7 100.3C74.8 100.5 76.8 102.2 78.8 103.8C80.8 105.4 82.8 108.3 83.3 109.1C83.8 109.9 83.8 110.1 83.7 110.3C83.5 110.6 81.9 112.8 81.7 113L79.5 115.9C79.4 116 78.9 116.3 78.6 116.1Z" fill="#555555"/>
<path opacity="0.3" d="M81.1 118C81.5 118.3 83 119.8 84.5 119.9C86 120 87.3 119.7 88.3 118.3C89.3 116.9 89.4 115.7 88.8 114.2C88.3 112.8 86.4 111.7 86.1 111.5C85.8 111.3 85.3 111.3 85.1 111.5L82.9 114.4L80.9 117.1C80.7 117.2 80.6 117.7 81.1 118Z" fill="#555555"/>
<path opacity="0.3" d="M56.6 93.8C56.7 93.4 57 93.2 57.6 90.2C58.1 87.3 57.7 86.4 60.5 81.8C63.2 77.2 66.4 78.6 67.3 78.9C68.1 79.3 70.2 80.6 70.6 83.6C71.1 86.6 69.9 89 68.7 91.3C67.5 93.5 65.1 96.2 64.5 96.9C63.9 97.5 63.7 97.6 63.4 97.5C63.1 97.4 60.6 96.2 60.3 96.1L57 94.7C56.9 94.6 56.5 94.2 56.6 93.8Z" fill="#555555"/>
<path opacity="0.3" d="M55.3 96.7C55.1 97.2 54 98.9 54.2 100.4C54.5 101.9 55 103.1 56.6 103.8C58.2 104.5 59.4 104.3 60.8 103.4C62.1 102.6 62.7 100.5 62.9 100.2C63.1 99.9 62.9 99.4 62.6 99.2L59.3 97.7L56.3 96.3C56.1 96.2 55.5 96.2 55.3 96.7Z" fill="#555555"/>
<path opacity="0.3" d="M74 62.2C74.3 61.8 74.8 61.7 76.9 58.5C78.9 55.3 78.9 54.2 84.3 50C89.7 45.9 92.8 49.1 93.6 49.9C94.4 50.8 96.2 53.2 95.3 57C94.4 60.8 91.9 63 89.4 65.1C86.9 67.1 82.9 69.2 81.9 69.6C80.9 70.1 80.6 70.1 80.3 69.8C80 69.5 77.6 67 77.4 66.7L74.3 63.4C73.9 63.2 73.7 62.6 74 62.2Z" fill="#555555"/>
<path opacity="0.3" d="M71.1 64.9C70.6 65.4 68.4 66.9 68.1 68.7C67.7 70.5 67.8 72.2 69.3 73.8C70.8 75.4 72.3 75.7 74.4 75.4C76.3 75.1 78.1 72.9 78.4 72.6C78.7 72.3 78.8 71.6 78.6 71.4L75.3 68L72.4 64.9C72.2 64.7 71.6 64.4 71.1 64.9Z" fill="#555555"/>
<path opacity="0.3" d="M104 139.5C103.9 139 104.1 138.5 103.1 134.9C102.1 131.3 101.1 130.6 101.7 123.8C102.2 117 106.6 116.8 107.8 116.8C109 116.8 112 117.1 114.2 120.3C116.4 123.5 116.4 126.9 116.3 130.1C116.2 133.3 115 137.7 114.7 138.7C114.4 139.8 114.2 140 113.8 140.1C113.4 140.1 109.9 140.2 109.5 140.3L104.9 140.4C104.8 140.2 104.1 140 104 139.5Z" fill="#555555"/>
<path opacity="0.3" d="M104.1 143.5C104.1 144.2 103.8 146.8 104.9 148.3C106 149.8 107.3 150.9 109.5 150.8C111.7 150.7 112.9 149.8 114 148C115 146.4 114.6 143.6 114.6 143.2C114.6 142.8 114.1 142.2 113.8 142.3L109.2 142.4L105 142.5C104.7 142.5 104.1 142.8 104.1 143.5Z" fill="#555555"/>
<path opacity="0.3" d="M104.7 99.1C104.7 98.6 104.9 98.1 104.2 94.1C103.4 90.1 102.5 89.2 103.8 82C105 74.7 109.8 75 111 75.1C112.3 75.2 115.5 75.8 117.6 79.4C119.7 83 119.3 86.7 118.9 90.1C118.5 93.5 116.8 98.1 116.3 99.2C115.8 100.3 115.6 100.6 115.2 100.6C114.8 100.6 111 100.4 110.6 100.3L105.7 100C105.4 99.9 104.7 99.6 104.7 99.1Z" fill="#555555"/>
<path opacity="0.3" d="M104.3 103.3C104.3 104.1 103.7 106.8 104.7 108.5C105.7 110.2 107.1 111.5 109.4 111.6C111.8 111.8 113.2 110.9 114.5 109.1C115.7 107.5 115.6 104.5 115.6 104C115.6 103.5 115.2 102.9 114.8 102.9L109.9 102.6L105.4 102.3C105.1 102.3 104.4 102.6 104.3 103.3Z" fill="#555555"/>
<path opacity="0.3" d="M159.4 108.3H147.6C146.7 108.3 137.6 108.3 136.6 108.2C135.6 108.1 135.1 107.5 134.1 104.8C133.1 102.1 129.8 90.9 129.3 82.6C128.8 74.3 128.5 65.6 134 57.2C139.5 48.8 147.3 47.8 150.4 47.8C153.5 47.8 164.9 48 166.7 65.5C168.5 83 166.2 85 163.8 94.4C161.4 103.9 162 105.2 161.8 106.4C161.5 107.6 159.9 108.3 159.4 108.3Z" fill="#555555"/>
<path opacity="0.3" d="M159.4 114.1H148.5H136.6C135.7 114.1 134.5 115.4 134.5 116.6C134.5 117.8 133.6 125 136.3 129.1C139.2 133.6 142.5 135.9 148.2 135.9C153.9 135.9 157.2 133.1 160 129.1C162.8 125.1 161.8 118.4 161.8 116.6C161.8 114.8 160.2 114.1 159.4 114.1Z" fill="#555555"/>
<path opacity="0.3" d="M178.2 106.4C178 105.2 178.6 103.9 176.2 94.4C173.8 84.9 171.5 83 173.3 65.5C175.1 48 186.6 47.8 189.6 47.8C192.6 47.8 200.4 48.8 206 57.2C211.6 65.6 211.3 74.3 210.7 82.6C210.1 90.9 206.8 102.1 205.9 104.8C205 107.5 204.4 108.2 203.4 108.2C202.4 108.3 193.3 108.3 192.4 108.3H180.6C180 108.3 178.4 107.6 178.2 106.4Z" fill="#555555"/>
<path opacity="0.3" d="M178.1 116.6C178.1 118.4 177.2 125.1 179.9 129.1C182.6 133.1 186 135.9 191.7 135.9C197.4 135.9 200.7 133.6 203.6 129.1C206.3 125 205.4 117.8 205.4 116.6C205.4 115.4 204.3 114.1 203.3 114.1H191.4H180.5C179.8 114.1 178.1 114.8 178.1 116.6Z" fill="#555555"/>
<path opacity="0.3" d="M230.2 113.3L226.2 113.9C225.9 113.9 222.8 114.4 222.4 114.4C222 114.4 221.8 114.2 221.4 113.3C220.9 112.4 219.3 108.7 218.7 105.9C218.1 103.1 217.6 100.1 219.1 97C220.6 93.9 223.2 93.2 224.3 93C225.3 92.9 229.3 92.4 230.7 98.3C232.1 104.2 231.4 105 231.1 108.4C230.7 111.8 231 112.2 231 112.6C230.9 113 230.4 113.3 230.2 113.3Z" fill="#555555"/>
<path opacity="0.3" d="M230.5 115.4L226.7 115.9L222.6 116.5C222.3 116.5 222 117 222 117.5C222.1 117.9 222.1 120.4 223.2 121.7C224.4 123.1 225.6 123.7 227.6 123.5C229.6 123.3 230.6 122.1 231.3 120.6C232.1 119.1 231.4 116.8 231.3 116.2C231.2 115.6 230.8 115.3 230.5 115.4Z" fill="#555555"/>
<path opacity="0.3" d="M245.7 96.3L240.6 95.7C240.2 95.7 236.3 95.2 235.9 95.1C235.5 95 235.3 94.7 235 93.5C234.7 92.3 233.8 87.3 234 83.7C234.2 80.1 234.5 76.3 237.2 73C239.9 69.7 243.4 69.6 244.7 69.7C246 69.8 250.9 70.5 250.9 78.1C250.9 85.8 249.8 86.5 248.3 90.4C246.8 94.3 247 95 246.9 95.5C246.6 96.2 245.9 96.4 245.7 96.3Z" fill="#555555"/>
<path opacity="0.3" d="M245.4 98.9L240.7 98.4L235.6 97.8C235.2 97.8 234.6 98.3 234.6 98.8C234.6 99.3 233.8 102.4 234.8 104.3C235.8 106.4 237.2 107.5 239.6 107.8C242 108.1 243.6 107 245 105.4C246.4 103.8 246.3 100.9 246.4 100.1C246.4 99.3 245.7 98.9 245.4 98.9Z" fill="#555555"/>
<path opacity="0.3" d="M261.1 62.8L257.4 61.8C257.1 61.7 254.2 61 253.9 60.8C253.6 60.6 253.5 60.5 253.4 59.5C253.3 58.5 253.2 54.7 253.7 52.1C254.2 49.4 254.9 46.6 257.3 44.5C259.7 42.3 262.3 42.7 263.3 42.9C264.3 43.2 267.9 44.2 266.9 49.9C266 55.6 265.1 56 263.5 58.8C261.9 61.6 262 62 261.9 62.4C261.8 62.8 261.3 62.9 261.1 62.8Z" fill="#555555"/>
<path opacity="0.3" d="M260.6 64.7L257.1 63.8L253.3 62.8C253 62.7 252.5 63 252.4 63.4C252.3 63.8 251.4 66 251.9 67.5C252.4 69.2 253.3 70.2 255.1 70.6C256.9 71.1 258.2 70.5 259.4 69.4C260.6 68.4 260.9 66.2 261 65.6C261.3 65.1 260.8 64.8 260.6 64.7Z" fill="#555555"/>
<path opacity="0.3" d="M280.5 39.8L278.6 35C278.4 34.6 277 31 276.9 30.5C276.8 30 276.9 29.8 277.9 28.9C278.9 28.1 282.8 24.9 286.1 23.4C289.3 21.9 292.8 20.4 297.1 21.2C301.4 22 303 25.1 303.5 26.3C304 27.5 305.7 32.2 299 35.7C292.2 39.2 291.1 38.6 286.9 39.1C282.7 39.6 282.3 40.1 281.8 40.2C281.2 40.6 280.6 40 280.5 39.8Z" fill="#555555"/>
<path opacity="0.3" d="M278.2 40.8L276.5 36.4L274.6 31.6C274.4 31.2 273.7 31 273.3 31.2C272.8 31.4 269.8 32.2 268.6 33.9C267.3 35.8 266.9 37.5 267.8 39.8C268.7 42.1 270.4 43 272.4 43.5C274.4 44 277 42.5 277.7 42.2C278.3 41.8 278.3 41.1 278.2 40.8Z" fill="#555555"/>
<path opacity="0.3" d="M295.7 107.3L292.5 108.2C292.2 108.3 289.8 108.9 289.5 109C289.2 109.1 289 108.9 288.6 108.3C288.1 107.6 286.4 104.9 285.6 102.7C284.8 100.5 284.1 98.2 285 95.5C285.9 92.8 287.9 92 288.7 91.8C289.5 91.6 292.6 90.8 294.4 95.4C296.2 100 295.7 100.7 295.8 103.4C295.9 106.1 296.1 106.4 296.2 106.8C296.2 106.9 295.8 107.2 295.7 107.3Z" fill="#555555"/>
<path opacity="0.3" d="M296.1 108.9L293.1 109.7L289.9 110.6C289.6 110.7 289.4 111.1 289.5 111.4C289.6 111.7 289.9 113.7 290.9 114.6C292 115.6 293.1 116 294.6 115.6C296.1 115.2 296.8 114.2 297.3 112.9C297.8 111.6 297 109.9 296.9 109.4C296.8 108.9 296.4 108.8 296.1 108.9Z" fill="#555555"/>
<path opacity="0.3" d="M289.6 147.4L284.5 146.6C284.1 146.5 280.2 145.9 279.8 145.8C279.4 145.7 279.2 145.4 279 144.2C278.8 143 278.1 137.9 278.5 134.4C278.9 130.9 279.3 127 282.3 123.8C285.2 120.6 288.7 120.7 289.9 120.9C291.2 121.1 296.1 122 295.7 129.6C295.3 137.2 294.2 137.9 292.5 141.8C290.8 145.7 291 146.3 290.8 146.8C290.5 147.2 289.8 147.4 289.6 147.4Z" fill="#555555"/>
<path opacity="0.3" d="M289.2 149.9L284.5 149.2L279.4 148.4C279 148.3 278.4 148.8 278.3 149.3C278.2 149.8 277.4 152.8 278.2 154.8C279.1 156.9 280.4 158.1 282.8 158.5C285.2 158.9 286.9 157.9 288.3 156.4C289.8 154.9 289.8 152 289.9 151.2C290.2 150.3 289.5 149.9 289.2 149.9Z" fill="#555555"/>
<path opacity="0.3" d="M244.6 113.4C244.9 113.3 245.4 113.4 248 112C250.6 110.6 251.1 109.9 256.5 109.3C261.9 108.7 262.6 112.1 262.8 113C263 113.9 263.2 116.3 261 118.5C258.9 120.7 256.2 121.2 253.7 121.5C251.2 121.9 247.6 121.6 246.8 121.5C245.9 121.4 245.7 121.3 245.6 121C245.5 120.7 244.9 118 244.9 117.7L244.1 114.2C244.2 114 244.3 113.5 244.6 113.4Z" fill="#555555"/>
<path opacity="0.3" d="M241.6 114C241.1 114.1 239 114.3 238 115.3C237 116.3 236.4 117.6 236.7 119.3C237.1 121 238 121.8 239.5 122.4C240.9 122.9 243 122.2 243.3 122.1C243.7 122 244 121.6 243.9 121.3L243.1 117.8L242.4 114.5C242.4 114.3 242.1 113.9 241.6 114Z" fill="#555555"/>
<path opacity="0.3" d="M275.2 115.7C274.9 115.5 274.7 115.1 271.9 114C269.1 112.8 268.3 113.1 264.3 109.4C260.4 105.7 262.4 102.9 263 102.2C263.6 101.5 265.3 99.7 268.3 99.9C271.3 100.1 273.4 101.8 275.4 103.4C277.4 105 279.4 107.9 279.9 108.7C280.4 109.4 280.4 109.7 280.3 109.9C280.2 110.1 278.5 112.4 278.3 112.6L276.1 115.5C276 115.6 275.5 115.9 275.2 115.7Z" fill="#555555"/>
<path opacity="0.3" d="M277.7 117.6C278.1 117.9 279.6 119.4 281.1 119.5C282.6 119.6 283.9 119.3 284.9 117.9C285.9 116.5 286 115.3 285.4 113.8C284.9 112.4 283 111.3 282.7 111.1C282.4 110.9 281.9 110.9 281.7 111.1L279.5 114L277.5 116.7C277.4 116.7 277.2 117.2 277.7 117.6Z" fill="#555555"/>
<path opacity="0.3" d="M253.2 93.4C253.3 93 253.6 92.8 254.2 89.8C254.7 86.9 254.3 86 257.1 81.4C259.8 76.8 263 78.2 263.9 78.5C264.7 78.9 266.8 80.2 267.2 83.2C267.7 86.2 266.5 88.6 265.3 90.9C264.1 93.1 261.7 95.8 261.1 96.5C260.5 97.1 260.3 97.2 260 97.1C259.7 97 257.2 95.8 256.9 95.7L253.6 94.2C253.5 94.2 253.1 93.8 253.2 93.4Z" fill="#555555"/>
<path opacity="0.3" d="M251.9 96.2C251.7 96.7 250.6 98.4 250.8 99.9C251.1 101.4 251.6 102.6 253.2 103.3C254.8 104 256 103.8 257.4 102.9C258.7 102.1 259.3 100 259.5 99.7C259.7 99.4 259.5 98.9 259.2 98.7L255.9 97.2L252.9 95.8C252.7 95.8 252.1 95.7 251.9 96.2Z" fill="#555555"/>
<path opacity="0.3" d="M270.6 61.8C270.9 61.4 271.4 61.3 273.5 58.1C275.5 54.9 275.5 53.8 280.9 49.6C286.3 45.5 289.4 48.7 290.2 49.5C291 50.4 292.8 52.8 291.9 56.6C291 60.4 288.5 62.6 286 64.7C283.5 66.7 279.5 68.8 278.5 69.2C277.5 69.7 277.2 69.7 276.9 69.4C276.6 69.1 274.2 66.6 274 66.3L270.9 63C270.5 62.8 270.3 62.1 270.6 61.8Z" fill="#555555"/>
<path opacity="0.3" d="M267.7 64.4C267.2 64.9 265 66.4 264.7 68.2C264.4 70 264.4 71.7 265.9 73.3C267.4 74.9 268.9 75.2 271 74.9C272.9 74.6 274.7 72.4 275 72.1C275.3 71.8 275.4 71.1 275.2 70.9L272.1 67.5L269.2 64.4C268.8 64.2 268.2 64 267.7 64.4Z" fill="#555555"/>
<path opacity="0.3" d="M300.7 139.1C300.6 138.6 300.8 138.1 299.8 134.5C298.8 130.9 297.8 130.2 298.4 123.4C298.9 116.6 303.3 116.4 304.5 116.4C305.7 116.4 308.7 116.7 310.9 119.9C313.1 123.1 313.1 126.5 313 129.7C312.9 132.9 311.7 137.3 311.4 138.3C311.1 139.4 310.9 139.6 310.5 139.7C310.1 139.7 306.6 139.8 306.2 139.9L301.6 140C301.4 139.8 300.7 139.6 300.7 139.1Z" fill="#555555"/>
<path opacity="0.3" d="M300.7 143.1C300.7 143.8 300.4 146.4 301.5 147.9C302.6 149.4 303.9 150.5 306.1 150.4C308.3 150.3 309.5 149.4 310.6 147.6C311.6 146 311.2 143.2 311.2 142.8C311.2 142.3 310.7 141.8 310.4 141.9L305.8 142L301.6 142.1C301.3 142.1 300.7 142.4 300.7 143.1Z" fill="#555555"/>
<path opacity="0.3" d="M301.3 98.6C301.3 98.1 301.5 97.6 300.8 93.6C300 89.6 299.1 88.7 300.4 81.5C301.6 74.2 306.4 74.5 307.6 74.6C308.9 74.7 312.1 75.3 314.2 78.9C316.3 82.5 315.9 86.2 315.5 89.6C315.1 93 313.4 97.6 312.9 98.7C312.4 99.8 312.2 100.1 311.8 100.1C311.4 100.1 307.6 99.9 307.2 99.8L302.3 99.5C302 99.5 301.3 99.1 301.3 98.6Z" fill="#555555"/>
<path opacity="0.3" d="M301 102.9C301 103.7 300.4 106.4 301.4 108.1C302.4 109.8 303.8 111.1 306.1 111.2C308.5 111.4 309.9 110.5 311.2 108.7C312.4 107.1 312.3 104.1 312.3 103.6C312.3 103.1 311.9 102.5 311.5 102.5L306.6 102.2L302.1 101.9C301.7 101.9 301 102.1 301 102.9Z" fill="#555555"/>
<path opacity="0.3" d="M316.6 111.9C316.6 111.7 316.9 111.5 317 109.5C317.2 107.5 316.9 107 318.4 103.8C319.9 100.6 322.1 101.3 322.7 101.5C323.3 101.7 324.7 102.4 325.2 104.4C325.7 106.4 325 108 324.4 109.6C323.7 111.1 322.3 113.1 322 113.5C321.7 113.9 321.5 114 321.3 114C321.1 113.9 319.4 113.3 319.2 113.3L316.9 112.5C316.8 112.3 316.5 112.1 316.6 111.9Z" fill="#555555"/>
<path opacity="0.3" d="M315.9 113.8C315.8 114.1 315.1 115.4 315.4 116.3C315.7 117.2 316.1 118 317.2 118.4C318.3 118.8 319.1 118.6 319.9 117.9C320.7 117.3 321 115.9 321.1 115.6C321.2 115.4 321.1 115 320.9 115L318.6 114.2L316.5 113.5C316.4 113.4 316 113.5 315.9 113.8Z" fill="#555555"/>
<path d="M26.3 106.2L22.3 106.8C22 106.8 18.9 107.3 18.5 107.3C18.1 107.3 17.9 107.1 17.5 106.2C17 105.3 15.4 101.6 14.8 98.8C14.2 96 13.7 93 15.2 89.9C16.7 86.8 19.3 86.1 20.4 85.9C21.4 85.8 25.4 85.3 26.8 91.2C28.2 97.1 27.5 97.9 27.2 101.3C26.8 104.7 27.1 105.1 27.1 105.5C27 105.9 26.4 106.2 26.3 106.2Z" fill="#555555"/>
<path d="M26.5 108.2L22.7 108.7L18.6 109.3C18.3 109.3 18 109.8 18 110.3C18.1 110.7 18.1 113.2 19.2 114.5C20.4 115.9 21.6 116.5 23.6 116.3C25.6 116.1 26.6 114.9 27.3 113.4C28.1 111.9 27.4 109.6 27.3 109C27.4 108.4 26.8 108.2 26.5 108.2Z" fill="#555555"/>
<path d="M41.7 89.2L36.6 88.6C36.2 88.6 32.3 88.1 31.9 88C31.5 87.9 31.3 87.6 31 86.4C30.7 85.2 29.8 80.2 30 76.6C30.2 73 30.5 69.2 33.2 65.9C35.9 62.6 39.4 62.5 40.7 62.6C42 62.7 46.9 63.4 46.9 71C46.9 78.6 45.8 79.4 44.3 83.3C42.8 87.2 43 87.9 42.9 88.4C42.7 89 41.9 89.3 41.7 89.2Z" fill="#555555"/>
<path d="M41.4 91.8L36.7 91.3L31.6 90.7C31.2 90.7 30.6 91.2 30.6 91.7C30.5 92.2 29.8 95.3 30.8 97.2C31.8 99.3 33.2 100.4 35.6 100.7C38 101 39.6 99.9 41 98.3C42.4 96.7 42.3 93.8 42.4 93C42.4 92.2 41.8 91.8 41.4 91.8Z" fill="#555555"/>
<path d="M57.1 55.7L53.4 54.7C53.1 54.6 50.2 53.9 49.9 53.7C49.6 53.6 49.5 53.4 49.4 52.4C49.3 51.4 49.2 47.6 49.7 45C50.2 42.3 50.9 39.5 53.3 37.4C55.7 35.2 58.3 35.6 59.3 35.8C60.3 36.1 63.9 37.1 62.9 42.8C62 48.5 61.1 48.9 59.5 51.7C57.9 54.5 58 54.9 57.9 55.3C57.9 55.7 57.3 55.8 57.1 55.7Z" fill="#555555"/>
<path d="M56.6 57.6L53.1 56.7L49.3 55.7C49 55.6 48.5 55.9 48.4 56.3C48.3 56.7 47.4 58.9 47.9 60.4C48.4 62.1 49.3 63.1 51.1 63.5C52.9 64 54.2 63.4 55.4 62.3C56.6 61.3 56.9 59.1 57 58.5C57.1 57.9 56.9 57.6 56.6 57.6Z" fill="#555555"/>
<path d="M76.6 32.7L74.7 28C74.5 27.6 73.1 24 73 23.5C72.9 23 73 22.8 74 21.9C75 21.1 78.9 17.9 82.2 16.4C85.4 14.9 88.9 13.4 93.2 14.2C97.4 15.1 99.1 18.1 99.6 19.3C100.1 20.5 101.8 25.2 95.1 28.7C88.3 32.2 87.2 31.6 83 32.1C78.8 32.6 78.4 33.1 77.9 33.2C77.2 33.5 76.7 32.9 76.6 32.7Z" fill="#555555"/>
<path d="M74.2 33.6L72.5 29.2L70.6 24.4C70.4 24 69.7 23.8 69.3 24C68.8 24.2 65.8 25 64.6 26.7C63.3 28.6 62.9 30.3 63.8 32.6C64.7 34.9 66.4 35.8 68.4 36.3C70.4 36.8 73 35.3 73.7 35C74.4 34.7 74.3 34 74.2 33.6Z" fill="#555555"/>
<path d="M91.7 100.2L88.5 101.1C88.2 101.2 85.8 101.8 85.5 101.9C85.2 102 85 101.8 84.6 101.2C84.1 100.5 82.4 97.8 81.6 95.6C80.8 93.4 80.1 91.1 81 88.4C81.9 85.7 83.9 84.9 84.7 84.7C85.5 84.5 88.6 83.7 90.4 88.3C92.2 92.9 91.7 93.6 91.8 96.3C91.9 99 92.1 99.3 92.2 99.7C92.3 100.1 91.9 100.1 91.7 100.2Z" fill="#555555"/>
<path d="M92.2 101.8L89.2 102.6L86 103.5C85.7 103.6 85.5 104 85.6 104.3C85.7 104.6 86 106.6 87 107.5C88.1 108.5 89.2 108.9 90.7 108.5C92.2 108.1 92.9 107.1 93.4 105.8C93.9 104.5 93.1 102.8 93 102.3C92.9 101.8 92.4 101.7 92.2 101.8Z" fill="#555555"/>
<path d="M85.6 140.3L80.5 139.5C80.1 139.4 76.2 138.8 75.8 138.7C75.4 138.6 75.2 138.3 75 137.1C74.8 135.9 74.1 130.8 74.5 127.3C74.9 123.8 75.3 119.9 78.3 116.7C81.2 113.5 84.7 113.6 85.9 113.8C87.2 114 92.1 114.9 91.7 122.5C91.3 130.1 90.2 130.8 88.5 134.7C86.8 138.6 87 139.2 86.8 139.7C86.6 140.1 85.8 140.3 85.6 140.3Z" fill="#555555"/>
<path d="M85.2 142.8L80.5 142.1L75.4 141.3C75 141.2 74.4 141.7 74.3 142.2C74.2 142.7 73.4 145.7 74.2 147.7C75.1 149.8 76.4 151 78.8 151.4C81.2 151.8 82.9 150.8 84.3 149.3C85.8 147.8 85.8 144.9 85.9 144.1C86.2 143.2 85.5 142.8 85.2 142.8Z" fill="#555555"/>
<path d="M40.7 106.3C41 106.2 41.4999 106.3 44.0999 104.9C46.6999 103.5 47.1999 102.8 52.5999 102.2C57.9999 101.6 58.7 105 58.9 105.9C59.1 106.8 59.2999 109.2 57.0999 111.4C54.9999 113.6 52.2999 114.1 49.7999 114.4C47.2999 114.8 43.7 114.5 42.9 114.4C42 114.3 41.8 114.2 41.7 113.9C41.6 113.6 41 110.9 41 110.6L40.2 107.1C40.2 106.9 40.3 106.4 40.7 106.3Z" fill="#555555"/>
<path d="M37.6 106.9C37.1 107 35 107.2 34 108.2C33 109.3 32.4 110.5 32.7 112.2C33 113.9 34 114.7 35.5 115.3C36.9 115.8 39 115.1 39.3 115C39.7 114.9 40 114.5 39.9 114.2L39.1 110.7L38.4 107.4C38.5 107.2 38.2 106.8 37.6 106.9Z" fill="#555555"/>
<path d="M71.2 108.6C70.9 108.4 70.7 108 67.9 106.9C65.1 105.8 64.3 106 60.3 102.3C56.3 98.6 58.5 95.7 59 95C59.6 94.3 61.3 92.5 64.3 92.7C67.4 92.9 69.4 94.6 71.4 96.2C73.4 97.8 75.4 100.7 75.9 101.5C76.4 102.3 76.4 102.5 76.3 102.7C76.1 103 74.5 105.2 74.3 105.4L72.1 108.3C72 108.5 71.5 108.7 71.2 108.6Z" fill="#555555"/>
<path d="M73.7 110.5C74.1 110.8 75.6 112.3 77.1 112.4C78.6 112.5 79.9 112.2 80.9 110.8C81.9 109.4 82 108.2 81.4 106.7C80.9 105.3 79 104.2 78.7 104C78.4 103.8 77.9 103.8 77.7 104L75.5 106.9L73.5 109.6C73.4 109.6 73.3 110.1 73.7 110.5Z" fill="#555555"/>
<path d="M49.3 86.3C49.4 85.9 49.7 85.7 50.3 82.7C50.8 79.8 50.4 78.9 53.2 74.3C56 69.7 59.1 71.1 60 71.4C60.9 71.7 62.9 73.1 63.3 76.1C63.8 79.1 62.6 81.5 61.4 83.8C60.2 86 57.8 88.7 57.2 89.4C56.5 90 56.3 90.1 56 90C55.7 89.9 53.2 88.7 52.9 88.6L49.6 87.1C49.5 87.1 49.2 86.7 49.3 86.3Z" fill="#555555"/>
<path d="M47.9 89.1C47.7 89.6 46.5999 91.3 46.7999 92.8C47.0999 94.3 47.5999 95.5 49.1999 96.2C50.7999 96.9 52 96.7 53.4 95.8C54.6999 95 55.2999 92.9 55.4999 92.6C55.6999 92.3 55.4999 91.8 55.1999 91.6L51.9999 90.1L48.9999 88.7C48.6999 88.7 48.2 88.6 47.9 89.1Z" fill="#555555"/>
<path d="M66.6 54.6C66.9 54.2 67.4 54.1 69.5 50.9C71.5 47.7 71.5 46.6 76.9 42.4C82.3 38.2 85.4 41.5 86.2 42.3C87 43.1 88.8 45.6 87.9 49.4C87 53.2 84.5 55.4 82 57.5C79.5 59.5 75.5 61.6 74.5 62C73.5 62.5 73.2 62.5 72.9 62.2C72.6 61.9 70.2 59.4 70 59.1L66.9 55.8C66.6 55.7 66.3 55 66.6 54.6Z" fill="#555555"/>
<path d="M63.7 57.3C63.2 57.8 61 59.3 60.7 61.1C60.3 62.9 60.4 64.6 61.9 66.2C63.4 67.8 64.9 68.1 67 67.8C68.9 67.5 70.7 65.3 71 65C71.3 64.7 71.3999 64 71.1999 63.8L68.0999 60.4L65.1999 57.3C64.7999 57.1 64.2 56.9 63.7 57.3Z" fill="#555555"/>
<path d="M96.7 132C96.6 131.5 96.8 131 95.8 127.4C94.8 123.8 93.8 123.1 94.4 116.3C94.9 109.5 99.3 109.3 100.5 109.3C101.7 109.3 104.7 109.6 106.9 112.8C109.1 116 109.1 119.4 109 122.6C108.9 125.8 107.7 130.2 107.4 131.2C107.1 132.2 106.9 132.5 106.5 132.6C106.1 132.6 102.6 132.7 102.2 132.8L97.6 132.9C97.4 132.7 96.8 132.5 96.7 132Z" fill="#555555"/>
<path d="M96.8 135.9C96.8 136.6 96.5 139.2 97.6 140.7C98.7 142.2 100 143.3 102.2 143.2C104.4 143.1 105.6 142.2 106.7 140.4C107.7 138.8 107.3 136 107.3 135.6C107.3 135.1 106.8 134.6 106.5 134.7L101.9 134.8L97.7 134.9C97.4 135 96.8 135.3 96.8 135.9Z" fill="#555555"/>
<path d="M97.3 91.5C97.3 91 97.5 90.5 96.8 86.5C96.1 82.5 95.1 81.6 96.4 74.4C97.6 67.1 102.4 67.4 103.6 67.5C104.9 67.6 108.1 68.2 110.2 71.8C112.3 75.4 111.9 79.1 111.5 82.5C111.1 85.9 109.4 90.5 108.9 91.6C108.4 92.7 108.2 93 107.8 93C107.4 93 103.6 92.8 103.2 92.7L98.3 92.4C98 92.4 97.3 92 97.3 91.5Z" fill="#555555"/>
<path d="M97 95.8C97 96.6 96.4 99.3 97.4 101C98.4 102.7 99.8 104 102.1 104.1C104.5 104.3 105.9 103.4 107.2 101.6C108.4 100 108.3 97 108.3 96.5C108.3 96 107.9 95.4 107.5 95.4L102.6 95.1L98.1 94.8C97.7 94.8 97 95 97 95.8Z" fill="#555555"/>
<path d="M152 100.7H140.2C139.3 100.7 130.2 100.7 129.2 100.6C128.2 100.5 127.7 99.9 126.7 97.2C125.7 94.5 122.4 83.3 121.9 75C121.4 66.7 121.1 58 126.6 49.6C132.1 41.2 139.9 40.2 143 40.2C146.1 40.2 157.5 40.4 159.3 57.9C161.1 75.4 158.8 77.4 156.4 86.8C154 96.2 154.6 97.6 154.4 98.8C154.2 100 152.6 100.7 152 100.7Z" fill="#555555"/>
<path d="M152 106.6H141.1H129.2C128.3 106.6 127.1 107.9 127.1 109.1C127.1 110.3 126.2 117.5 128.9 121.6C131.8 126.1 135.1 128.4 140.8 128.4C146.5 128.4 149.8 125.6 152.6 121.6C155.4 117.6 154.4 110.9 154.4 109.1C154.4 107.3 152.8 106.6 152 106.6Z" fill="#555555"/>
<path d="M170.9 98.8C170.7 97.6 171.3 96.3 168.9 86.8C166.5 77.3 164.2 75.5 166 58C167.8 40.5 179.3 40.3 182.3 40.3C185.3 40.3 193.1 41.3 198.7 49.7C204.3 58.1 204 66.8 203.4 75.1C202.8 83.4 199.5 94.6 198.6 97.3C197.7 100 197.1 100.7 196.1 100.7C195.1 100.8 186 100.8 185.1 100.8H173.3C172.7 100.7 171 100 170.9 98.8Z" fill="#555555"/>
<path d="M170.8 109.1C170.8 110.9 169.9 117.6 172.6 121.6C175.4 125.6 178.7 128.4 184.4 128.4C190.1 128.4 193.4 126.1 196.3 121.6C199 117.5 198.1 110.3 198.1 109.1C198.1 107.9 197 106.6 196 106.6H184.1H173.2C172.4 106.6 170.8 107.3 170.8 109.1Z" fill="#555555"/>
<path d="M222.9 105.8L218.9 106.4C218.6 106.4 215.5 106.9 215.1 106.9C214.7 106.9 214.5 106.7 214.1 105.8C213.6 104.9 212 101.2 211.4 98.4C210.8 95.6 210.3 92.6 211.8 89.5C213.3 86.4 215.9 85.7 217 85.5C218 85.4 222 84.9 223.4 90.8C224.8 96.7 224.1 97.5 223.8 100.9C223.5 104.3 223.7 104.7 223.7 105.1C223.6 105.5 223 105.8 222.9 105.8Z" fill="#555555"/>
<path d="M223.1 107.8L219.3 108.3L215.2 108.9C214.9 108.9 214.6 109.4 214.6 109.9C214.7 110.3 214.7 112.8 215.8 114.1C217 115.5 218.2 116.1 220.2 115.9C222.2 115.6 223.2 114.5 223.9 113C224.7 111.5 224 109.2 223.9 108.6C224 107.9 223.4 107.8 223.1 107.8Z" fill="#555555"/>
<path d="M238.3 88.8L233.2 88.2C232.8 88.2 228.9 87.7 228.5 87.6C228.1 87.5 227.9 87.2 227.6 86C227.3 84.8 226.4 79.8 226.6 76.2C226.8 72.6 227.1 68.8 229.8 65.5C232.6 62.2 236 62.1 237.3 62.2C238.6 62.3 243.5 63 243.5 70.6C243.5 78.3 242.4 79 240.9 82.9C239.4 86.8 239.6 87.5 239.5 88C239.3 88.6 238.5 88.8 238.3 88.8Z" fill="#555555"/>
<path d="M238 91.3L233.3 90.8L228.2 90.2C227.8 90.2 227.2 90.7 227.2 91.2C227.2 91.7 226.4 94.8 227.4 96.7C228.4 98.8 229.8 99.9 232.2 100.2C234.6 100.5 236.2 99.4 237.6 97.8C239 96.2 238.9 93.3 239 92.5C239.1 91.7 238.4 91.4 238 91.3Z" fill="#555555"/>
<path d="M253.7 55.3L250 54.3C249.7 54.2 246.8 53.5 246.5 53.3C246.2 53.2 246.1 53 246 52C245.9 51 245.8 47.2 246.3 44.6C246.8 41.9 247.5 39.1 249.9 37C252.3 34.8 254.9 35.2 255.9 35.4C256.9 35.7 260.5 36.7 259.5 42.4C258.6 48.1 257.7 48.5 256.1 51.3C254.5 54.1 254.6 54.5 254.5 54.9C254.4 55.3 253.9 55.3 253.7 55.3Z" fill="#555555"/>
<path d="M253.3 57.1L249.8 56.2L246 55.2C245.7 55.1 245.2 55.4 245.1 55.8C245 56.2 244.1 58.4 244.6 59.9C245.1 61.6 246 62.6 247.8 63C249.6 63.5 250.9 62.9 252.1 61.8C253.3 60.8 253.6 58.6 253.7 58C253.8 57.4 253.5 57.2 253.3 57.1Z" fill="#555555"/>
<path d="M273.2 32.3L271.3 27.5C271.1 27.1 269.7 23.5 269.6 23C269.5 22.5 269.6 22.3 270.6 21.4C271.6 20.6 275.5 17.4 278.8 15.9C282.1 14.4 285.5 12.9 289.8 13.7C294 14.6 295.7 17.6 296.2 18.8C296.7 20 298.4 24.7 291.7 28.2C284.9 31.7 283.8 31.1 279.6 31.6C275.4 32.1 275 32.6 274.5 32.7C273.8 33 273.3 32.5 273.2 32.3Z" fill="#555555"/>
<path d="M270.8 33.2L269.1 28.8L267.2 24C267 23.6 266.3 23.4 265.9 23.6C265.4 23.8 262.4 24.6 261.2 26.3C259.9 28.2 259.5 29.9 260.4 32.2C261.3 34.5 263 35.4 265 35.9C267 36.4 269.6 34.9 270.3 34.6C270.9 34.3 271 33.5 270.8 33.2Z" fill="#555555"/>
<path d="M288.4 99.7L285.2 100.6C284.9 100.7 282.5 101.3 282.2 101.4C281.9 101.5 281.7 101.3 281.3 100.7C280.8 100 279.1 97.3 278.3 95.1C277.5 92.9 276.8 90.6 277.7 87.9C278.6 85.2 280.6 84.4 281.4 84.2C282.2 84 285.3 83.2 287.1 87.8C288.9 92.4 288.4 93.1 288.5 95.8C288.6 98.5 288.8 98.8 288.9 99.2C288.9 99.4 288.5 99.7 288.4 99.7Z" fill="#555555"/>
<path d="M288.8 101.3L285.8 102.1L282.6 103C282.3 103.1 282.1 103.5 282.2 103.8C282.3 104.1 282.6 106.1 283.6 107C284.7 108 285.8 108.4 287.3 108C288.8 107.6 289.5 106.6 290 105.3C290.5 104 289.7 102.3 289.6 101.8C289.5 101.3 289 101.3 288.8 101.3Z" fill="#555555"/>
<path d="M282.2 139.8L277.1 139C276.7 138.9 272.8 138.3 272.4 138.2C272 138.1 271.8 137.8 271.6 136.6C271.4 135.4 270.7 130.3 271.1 126.8C271.4 123.2 271.9 119.4 274.9 116.2C277.8 113 281.3 113.1 282.5 113.3C283.7 113.5 288.7 114.4 288.3 122C287.9 129.6 286.8 130.3 285.1 134.2C283.4 138.1 283.6 138.7 283.4 139.2C283.2 139.7 282.4 139.8 282.2 139.8Z" fill="#555555"/>
<path d="M281.8 142.3L277.1 141.6L272 140.8C271.6 140.7 271 141.2 270.9 141.7C270.8 142.2 270 145.2 270.8 147.2C271.7 149.3 273 150.5 275.4 150.9C277.8 151.3 279.5 150.3 280.9 148.8C282.3 147.3 282.4 144.4 282.5 143.6C282.8 142.8 282.2 142.4 281.8 142.3Z" fill="#555555"/>
<path d="M237.3 105.8C237.6 105.7 238.1 105.8 240.7 104.4C243.4 103.1 243.8 102.3 249.2 101.7C254.6 101.1 255.3 104.5 255.5 105.4C255.7 106.3 255.9 108.7 253.7 110.9C251.6 113.1 248.9 113.6 246.4 113.9C243.9 114.3 240.3 114 239.5 113.9C238.7 113.8 238.4 113.7 238.3 113.4C238.2 113.1 237.6 110.4 237.6 110.1L236.8 106.6C236.8 106.5 236.9 106 237.3 105.8Z" fill="#555555"/>
<path d="M234.2 106.5C233.7 106.6 231.6 106.8 230.6 107.8C229.6 108.9 229 110.1 229.3 111.8C229.6 113.5 230.6 114.3 232.1 114.9C233.5 115.4 235.6 114.7 235.9 114.6C236.2 114.5 236.6 114.1 236.5 113.8L235.7 110.3L235 107C235.1 106.8 234.8 106.4 234.2 106.5Z" fill="#555555"/>
<path d="M267.8 108.1C267.5 107.9 267.3 107.5 264.5 106.4C261.7 105.2 260.9 105.5 256.9 101.8C253 98.1 255 95.3 255.6 94.6C256.2 93.9 257.9 92.1 260.9 92.3C263.9 92.5 266 94.2 268 95.8C269.9 97.4 272 100.3 272.5 101.1C273 101.8 273 102.1 272.9 102.3C272.8 102.5 271.1 104.8 270.9 105L268.7 107.9C268.6 108 268.2 108.3 267.8 108.1Z" fill="#555555"/>
<path d="M270.3 110C270.7 110.3 272.2 111.8 273.7 111.9C275.2 112 276.5 111.7 277.5 110.3C278.5 108.9 278.6 107.7 278 106.2C277.5 104.8 275.6 103.7 275.3 103.5C275 103.3 274.5 103.3 274.3 103.5L272.1 106.4L270.1 109.1C270 109.2 269.9 109.7 270.3 110Z" fill="#555555"/>
<path d="M245.9 85.9C246 85.5 246.3 85.3 246.9 82.3C247.4 79.4 247 78.5 249.8 73.9C252.5 69.3 255.7 70.7 256.6 71C257.4 71.4 259.5 72.7 259.9 75.7C260.4 78.7 259.2 81.1 258 83.4C256.8 85.6 254.4 88.3 253.8 89C253.2 89.6 253 89.7 252.7 89.6C252.4 89.5 249.9 88.3 249.6 88.2L246.3 86.7C246.1 86.6 245.8 86.2 245.9 85.9Z" fill="#555555"/>
<path d="M244.5 88.7C244.3 89.2 243.2 90.9 243.4 92.4C243.7 93.9 244.2 95.1 245.8 95.8C247.4 96.5 248.6 96.3 250 95.4C251.3 94.6 251.9 92.5 252.1 92.2C252.3 91.9 252.1 91.4 251.8 91.2L248.5 89.7L245.5 88.3C245.3 88.2 244.8 88.2 244.5 88.7Z" fill="#555555"/>
<path d="M263.2 54.2C263.5 53.8 264 53.7 266.1 50.5C268.1 47.3 268.1 46.2 273.5 42C278.9 37.9 282 41.1 282.8 41.9C283.6 42.7 285.4 45.2 284.5 49C283.6 52.8 281.1 55 278.6 57.1C276.1 59.1 272.1 61.2 271.1 61.6C270.1 62.1 269.8 62.1 269.5 61.8C269.2 61.5 266.8 59 266.6 58.7L263.5 55.4C263.2 55.2 262.9 54.6 263.2 54.2Z" fill="#555555"/>
<path d="M260.3 56.9C259.8 57.4 257.6 58.9 257.3 60.7C257 62.5 257 64.2 258.5 65.8C260 67.4 261.5 67.7 263.6 67.4C265.5 67.1 267.3 64.9 267.6 64.6C267.9 64.3 268 63.6 267.8 63.4L264.7 60L261.8 56.9C261.5 56.7 260.8 56.4 260.3 56.9Z" fill="#555555"/>
<path d="M293.3 131.6C293.2 131.1 293.4 130.6 292.4 127C291.4 123.4 290.4 122.7 291 115.9C291.6 109.1 295.9 108.9 297.1 108.9C298.3 108.9 301.3 109.2 303.5 112.4C305.7 115.6 305.7 119 305.6 122.2C305.5 125.4 304.3 129.8 304 130.8C303.7 131.8 303.5 132.1 303.1 132.2C302.7 132.2 299.2 132.3 298.8 132.4L294.2 132.5C294 132.3 293.4 132 293.3 131.6Z" fill="#555555"/>
<path d="M293.4 135.5C293.4 136.2 293.1 138.8 294.2 140.3C295.3 141.8 296.6 142.9 298.8 142.8C301 142.7 302.2 141.8 303.3 140C304.3 138.4 303.9 135.6 303.9 135.2C303.9 134.8 303.4 134.2 303.1 134.3L298.5 134.4L294.3 134.5C294 134.5 293.4 134.8 293.4 135.5Z" fill="#555555"/>
<path d="M293.9 91.1C293.9 90.6 294.1 90.1 293.4 86.1C292.6 82.1 291.7 81.2 293 74C294.2 66.7 299 67 300.2 67.1C301.5 67.2 304.7 67.8 306.8 71.4C308.9 75 308.5 78.7 308.1 82.1C307.7 85.5 306 90.1 305.5 91.2C305 92.3 304.8 92.6 304.4 92.6C304 92.6 300.2 92.4 299.8 92.3L294.9 92C294.6 91.9 293.9 91.6 293.9 91.1Z" fill="#555555"/>
<path d="M293.6 95.4C293.6 96.2 293 98.9 294 100.6C295 102.3 296.4 103.6 298.7 103.7C301 103.8 302.5 103 303.8 101.2C305 99.6 304.9 96.6 304.9 96.1C304.9 95.6 304.5 95 304.1 95L299.2 94.7L294.7 94.4C294.3 94.4 293.6 94.6 293.6 95.4Z" fill="#555555"/>
<path d="M309.2 104.3C309.2 104.1 309.5 103.9 309.6 101.9C309.8 99.9 309.5 99.4 311 96.2C312.5 93 314.7 93.7 315.3 93.9C315.9 94.1 317.3 94.8 317.8 96.8C318.3 98.8 317.6 100.4 317 102C316.3 103.5 314.9 105.5 314.6 105.9C314.3 106.3 314.1 106.4 313.9 106.4C313.7 106.3 312 105.7 311.8 105.7L309.5 104.9C309.4 104.8 309.2 104.5 309.2 104.3Z" fill="#555555"/>
<path d="M308.5 106.3C308.4 106.6 307.7 107.9 308 108.8C308.3 109.7 308.7 110.5 309.8 110.9C310.9 111.3 311.7 111.1 312.5 110.4C313.3 109.8 313.6 108.4 313.7 108.1C313.8 107.9 313.7 107.5 313.5 107.5L311.2 106.7L309.1 106C309 105.9 308.6 105.9 308.5 106.3Z" fill="#555555"/>
</svg>
