<svg width="81" height="80" viewBox="0 0 81 80" fill="none" xmlns="http://www.w3.org/2000/svg">
<path d="M40.6667 80C62.7581 80 80.6667 62.0914 80.6667 40C80.6667 17.9086 62.7581 0 40.6667 0C18.5754 0 0.666748 17.9086 0.666748 40C0.666748 62.0914 18.5754 80 40.6667 80Z" fill="#A1A1AA"/>
<path d="M40.6672 53.3333C49.8719 53.3333 57.3338 45.8714 57.3338 36.6667C57.3338 27.4619 49.8719 20 40.6672 20C31.4624 20 24.0005 27.4619 24.0005 36.6667C24.0005 45.8714 31.4624 53.3333 40.6672 53.3333Z" fill="white"/>
<path fill-rule="evenodd" clip-rule="evenodd" d="M70.7526 66.3605C63.4212 74.7213 52.6604 80 40.6667 80C28.6304 80 17.8357 74.6837 10.5027 66.2712C13.5845 62.7844 17.3502 59.6585 20.7865 57.7162C26.1045 54.7104 32.7548 52.7858 40.2311 52.7858C47.7075 52.7858 54.7157 55.139 59.8103 57.7162C63.193 59.4275 67.3051 62.5358 70.7526 66.3605Z" fill="white"/>
<rect x="1.00008" y="0.333333" width="79.3333" height="79.3333" rx="39.6667" stroke="#A1A1AA" stroke-width="0.666667"/>
</svg>
