<svg width="26" height="26" viewBox="0 0 26 26" fill="none" xmlns="http://www.w3.org/2000/svg">
<g filter="url(#filter0_d_178_5767)">
<rect x="2.66675" y="3" width="20" height="20" rx="10" fill="white" shape-rendering="crispEdges"/>
<path d="M17.0417 17.375H8.29175C8.05968 17.375 7.83712 17.2828 7.67303 17.1187C7.50894 16.9546 7.41675 16.7321 7.41675 16.5V10.375C7.41675 10.1429 7.50894 9.92038 7.67303 9.75628C7.83712 9.59219 8.05968 9.5 8.29175 9.5H10.0414L10.9164 8.1875H14.4164L15.2914 9.5H17.0417C17.2738 9.5 17.4964 9.59219 17.6605 9.75628C17.8246 9.92038 17.9167 10.1429 17.9167 10.375V16.5C17.9167 16.7321 17.8246 16.9546 17.6605 17.1187C17.4964 17.2828 17.2738 17.375 17.0417 17.375Z" stroke="#A1A1AA" stroke-linecap="round" stroke-linejoin="round"/>
<path d="M12.6667 15.1875C13.7541 15.1875 14.6355 14.3061 14.6355 13.2188C14.6355 12.1314 13.7541 11.25 12.6667 11.25C11.5794 11.25 10.698 12.1314 10.698 13.2188C10.698 14.3061 11.5794 15.1875 12.6667 15.1875Z" stroke="#A1A1AA" stroke-linecap="round" stroke-linejoin="round"/>
</g>
<defs>
<filter id="filter0_d_178_5767" x="8.13007e-05" y="0.333333" width="25.3333" height="25.3333" filterUnits="userSpaceOnUse" color-interpolation-filters="sRGB">
<feFlood flood-opacity="0" result="BackgroundImageFix"/>
<feColorMatrix in="SourceAlpha" type="matrix" values="0 0 0 0 0 0 0 0 0 0 0 0 0 0 0 0 0 0 127 0" result="hardAlpha"/>
<feOffset/>
<feGaussianBlur stdDeviation="1.33333"/>
<feComposite in2="hardAlpha" operator="out"/>
<feColorMatrix type="matrix" values="0 0 0 0 0 0 0 0 0 0 0 0 0 0 0 0 0 0 0.25 0"/>
<feBlend mode="normal" in2="BackgroundImageFix" result="effect1_dropShadow_178_5767"/>
<feBlend mode="normal" in="SourceGraphic" in2="effect1_dropShadow_178_5767" result="shape"/>
</filter>
</defs>
</svg>
