<svg width="150" height="50" viewBox="0 0 150 50" fill="none" xmlns="http://www.w3.org/2000/svg">
<g clip-path="url(#clip0_10_2)">
<path fill-rule="evenodd" clip-rule="evenodd" d="M46.8 21.4C45.5 22.1 43.9 22.4 41.8 22.5C41.9 21.8 42 21.1 42.2 20.3C42.4 19.5 42.6 18.8 43 18.2C43.3 17.6 43.8 17 44.3 16.6C44.8 16.2 45.4 16 46.2 16C47.1 16 47.7 16.3 48.1 16.8C48.5 17.3 48.7 17.9 48.7 18.6C48.7 19.8 48.1 20.8 46.8 21.4ZM55.1 11.5C54.4 10.8 53.4 10.3 52.2 9.9C51 9.5 49.6 9.3 47.8 9.3C45.7 9.3 43.8 9.6 42.3 10.2C40.8 10.8 39.4 11.6 38.3 12.6C37.2 13.6 36.3 14.7 35.7 15.9C35 17.1 34.5 18.4 34.1 19.6C33.7 20.8 33.5 22 33.3 23.2C33.2 24.4 33.1 25.4 33.1 26.2C33.1 28.5 33.5 30.4 34.2 31.9C34.9 33.4 35.9 34.6 37 35.5C38.1 36.4 39.4 37 40.9 37.4C42.3 37.8 43.8 38 45.2 38C46.3 38 47.4 37.9 48.6 37.7C49.8 37.5 50.8 37.2 51.7 36.7C52.6 36.3 53.4 35.7 54 35C54.6 34.3 54.9 33.5 54.9 32.5C54.9 31.8 54.7 31.2 54.4 30.7C54.1 30.2 53.7 29.9 53.3 29.6C52.9 29.3 52.5 29.2 52 29.1C51.6 29 51.3 29 51.1 29C50.7 29 50.4 29.1 50.2 29.4C50 29.7 49.7 30 49.4 30.4C49.1 30.8 48.7 31.1 48.2 31.4C47.7 31.7 47.1 31.8 46.2 31.8C45.3 31.8 44.6 31.6 44 31.3C43.4 31 42.9 30.6 42.6 30.1C42.2 29.6 42 29.1 41.8 28.5C41.6 27.9 41.5 27.3 41.5 26.6C42 26.6 42.8 26.6 43.7 26.5C44.7 26.4 45.7 26.3 46.9 26.1C48.1 25.9 49.2 25.6 50.4 25.2C51.6 24.8 52.7 24.2 53.6 23.5C54.6 22.8 55.4 21.9 56 20.8C56.6 19.7 56.9 18.4 56.9 16.9C56.9 15.9 56.7 14.9 56.4 14C56.4 13 55.8 12.2 55.1 11.5Z" fill="white"/>
<path fill-rule="evenodd" clip-rule="evenodd" d="M22 29.1C21 30.5 19.9 31.2 18.4 31.2C17.6 31.2 17 31 16.4 30.6C15.9 30.2 15.5 29.7 15.2 29C14.9 28.3 14.7 27.6 14.6 26.7C14.5 25.9 14.4 25 14.4 24.1C14.4 21.6 14.8 19.5 15.6 18.1C16.4 16.6 17.6 15.9 19.3 15.9C20.1 15.9 20.8 16.1 21.3 16.5C21.8 16.9 22.2 17.4 22.5 18C22.8 18.6 23 19.3 23.1 20.1C23.2 20.9 23.3 21.7 23.3 22.5C23.4 25.5 23 27.7 22 29.1ZM23 9.3C21.2 9.3 19.7 9.6 18.5 10.3C17.3 11 16.3 12.1 15.6 13.6C15.6 12.6 15.2 11.7 14.4 10.9C13.6 10.1 12.3 9.8 10.5 9.8H8.59999C8.19999 9.8 7.89999 9.8 7.79999 9.9C7.69999 10 7.59999 10.5 7.59999 11.2C7.49999 11.8 7.39999 13 7.29999 14.7C7.19999 16.4 6.99999 18.3 6.89999 20.5C6.69999 22.7 6.59999 24.9 6.39999 27.3C6.19999 29.7 6.09999 31.9 5.89999 34C5.79999 36.1 5.59999 37.8 5.49999 39.3C5.39999 40.8 5.39999 41.7 5.39999 42C5.39999 42.8 5.49999 43.4 5.59999 44C5.69999 44.6 5.99999 45.1 6.39999 45.5C6.79999 45.9 7.29999 46.2 7.89999 46.4C8.49999 46.6 9.39999 46.7 10.4 46.7H12.2C12.6 46.7 12.9 46.6 13 46.5C13.1 46.4 13.2 46.1 13.2 45.7C13.3 44.2 13.4 42.9 13.5 42.1C13.6 41.2 13.6 40.5 13.7 40C13.7 39.5 13.8 39.1 13.8 38.8C13.8 38.5 13.8 38.2 13.9 37.8C13.9 37.4 14 36.9 14 36.3C14.1 35.7 14.1 34.7 14.2 33.5C14.8 34.9 15.5 36 16.5 36.8C17.5 37.6 18.9 38 20.6 38C22.2 38 23.8 37.6 25.2 36.9C26.6 36.2 27.9 35.1 28.9 33.7C30 32.3 30.8 30.5 31.4 28.5C32 26.5 32.3 24.1 32.3 21.5C32.3 17.3 31.5 14.2 30 12.3C28.4 10.2 26.1 9.3 23 9.3Z" fill="white"/>
<path fill-rule="evenodd" clip-rule="evenodd" d="M77.9 11.2C77.4 10.7 76.8 10.4 76.1 10.1C75.5 9.9 74.8 9.7 74.2 9.7C73.7 9.7 73.1 9.8 72.5 9.9C71.9 10 71.3 10.3 70.7 10.7C70.1 11.1 69.5 11.5 69 12.1C68.5 12.7 68 13.3 67.6 14.1C67.5 13.6 67.4 13.1 67.2 12.6C67 12.1 66.7 11.7 66.3 11.4C65.9 11 65.4 10.8 64.8 10.6C64.2 10.4 63.4 10.3 62.5 10.3H60.6C60 10.3 59.6 10.8 59.6 11.8C59.3 15.5 59.1 18.6 58.9 21.1C58.7 23.6 58.6 25.7 58.4 27.3C58.3 28.9 58.2 30.2 58.1 31.1C58.1 32 58 32.7 58 33.2C58 34 58.1 34.6 58.2 35.2C58.3 35.8 58.6 36.3 59 36.7C59.4 37.1 59.9 37.4 60.5 37.6C61.1 37.8 62 37.9 63 37.9H64.8C65.1 37.9 65.3 37.8 65.5 37.6C65.7 37.4 65.8 37.2 65.8 36.8C65.8 36.5 65.8 35.9 65.9 34.9C66 33.9 66 32.8 66.1 31.6C66.2 30.3 66.3 29 66.4 27.7C66.5 26.3 66.6 25.1 66.7 24.1C66.9 21.7 67.3 19.8 67.9 18.6C68.5 17.4 69.3 16.8 70.2 16.8C70.8 16.8 71.2 17 71.4 17.5C71.6 18 71.7 18.6 71.7 19.3C71.7 19.7 71.7 20.1 71.7 20.5C71.7 20.9 71.6 21.3 71.6 21.7C71.6 21.8 71.7 21.9 71.8 22C72 22.1 72.2 22.2 72.4 22.2C72.6 22.2 72.9 22.3 73.1 22.3C73.3 22.3 73.6 22.3 73.8 22.3C74.7 22.3 75.4 22.1 76.1 21.8C76.8 21.4 77.4 21 77.9 20.3C78.4 19.7 78.8 19 79 18.2C79.3 17.4 79.4 16.5 79.4 15.6C79.4 14.6 79.2 13.7 78.9 13C78.9 12.2 78.5 11.6 77.9 11.2Z" fill="white"/>
<path fill-rule="evenodd" clip-rule="evenodd" d="M104.5 3.80001C104.2 3.10001 103.6 2.40001 102.9 1.90001C102.2 1.40001 101.2 0.900006 100.1 0.600006C98.9 0.300006 97.5 0.100006 95.9 0.100006C94.2 0.100006 92.7 0.300006 91.3 0.700006C89.9 1.10001 88.8 1.70001 87.8 2.60001C86.8 3.50001 86 4.70001 85.4 6.10001C84.8 7.60001 84.4 9.40001 84.2 11.6L84 13.6C83.3 13.6 82.7 13.8 82.3 14C81.9 14.2 81.6 14.5 81.3 14.8C81.1 15.1 80.9 15.5 80.9 15.9C80.8 16.3 80.8 16.7 80.7 17.1C80.7 17.6 80.6 18.1 80.6 18.6C80.6 19.1 80.6 19.5 80.6 19.8C80.6 20.2 80.8 20.4 81.1 20.4H83.4C83.3 21.8 83.2 23.1 83.1 24.5C83 25.9 82.9 27.1 82.8 28.2C82.7 29.3 82.7 30.3 82.6 31.1C82.5 31.9 82.5 32.4 82.5 32.6C82.5 34.3 82.9 35.6 83.6 36.4C84.3 37.3 85.6 37.7 87.3 37.7H89.1C89.5 37.7 89.8 37.6 89.9 37.5C90 37.4 90.1 37.1 90.1 36.7C90.1 36.7 90.1 36.4 90.2 35.8C90.3 35.2 90.3 34.5 90.4 33.6C90.5 32.7 90.5 31.7 90.6 30.6C90.7 29.5 90.8 28.3 90.9 27.1C91 25.9 91.1 24.7 91.2 23.6C91.3 22.4 91.4 21.3 91.4 20.3H94.4C95.9 20.3 96.9 20 97.3 19.4C97.8 18.8 98 18 98.1 17L98.3 14.3C98.3 13.8 98 13.6 97.5 13.6H92C92.1 12.7 92.2 11.9 92.4 11C92.5 10.2 92.8 9.40001 93.1 8.80001C93.4 8.10001 93.8 7.60001 94.2 7.20001C94.7 6.80001 95.2 6.60001 95.9 6.60001C96.8 6.60001 97.3 6.90001 97.5 7.60001C97.7 8.20001 97.8 9.10001 97.8 10.2C97.8 10.5 97.9 10.7 98.1 10.8C98.3 10.9 98.6 10.9 99.1 10.9C100.9 10.9 102.4 10.5 103.4 9.80001C104.5 9.10001 105 7.80001 105 6.10001C105 5.30001 104.8 4.60001 104.5 3.80001Z" fill="white"/>
<path fill-rule="evenodd" clip-rule="evenodd" d="M112.8 11.5C112.4 11.1 111.9 10.8 111.3 10.6C110.7 10.4 109.8 10.3 108.8 10.3H106.9C106.5 10.3 106.2 10.4 106.1 10.5C106 10.6 105.9 11.1 105.9 11.8C105.6 15.5 105.4 18.6 105.2 21.1C105 23.6 104.9 25.7 104.7 27.3C104.6 28.9 104.5 30.2 104.4 31.1C104.3 32 104.3 32.7 104.3 33.2C104.3 34 104.4 34.7 104.5 35.2C104.6 35.8 104.9 36.3 105.3 36.7C105.7 37.1 106.2 37.4 106.8 37.6C107.4 37.8 108.3 37.9 109.3 37.9H111.1C111.5 37.9 111.8 37.8 111.9 37.7C112 37.6 112.1 37.3 112.1 36.9C112.4 33.3 112.6 30.2 112.8 27.6C113 25 113.2 22.9 113.3 21.2C113.4 19.5 113.5 18.1 113.6 17.1C113.7 16.1 113.7 15.3 113.7 14.8C113.7 14.1 113.6 13.5 113.5 12.9C113.5 12.4 113.2 11.9 112.8 11.5Z" fill="white"/>
<path fill-rule="evenodd" clip-rule="evenodd" d="M114.2 0.9C113.6 0.3 112.5 0 111.1 0C109.5 0 108.2 0.4 107.2 1.2C106.2 2 105.8 3 105.8 4.4C105.8 6.5 107.1 7.6 109.8 7.6C111.5 7.6 112.9 7.2 113.8 6.4C114.7 5.6 115.2 4.5 115.2 3.3C115.2 2.2 114.9 1.5 114.2 0.9Z" fill="white"/>
<path fill-rule="evenodd" clip-rule="evenodd" d="M145.7 9.79999H140.5C140.6 8.49999 140.7 7.49999 140.7 6.79999C140.7 5.59999 140.4 4.59999 139.9 3.69999C139.4 2.79999 138.4 2.39999 137 2.39999H135.6C135.4 2.39999 135.1 2.69999 134.8 3.19999C134.5 3.69999 134.2 4.39999 133.9 5.19999C133.6 5.99999 133.3 6.79999 133 7.59999C132.7 8.39999 132.4 9.19999 132.2 9.79999C132.1 9.79999 132 9.79999 131.9 9.79999H131.8H126.6C126.7 8.49999 126.7 7.49999 126.7 6.79999C126.7 5.59999 126.4 4.59999 125.9 3.69999C125.4 2.79999 124.4 2.39999 123 2.39999H121.6C121.4 2.39999 121.1 2.69999 120.8 3.19999C120.5 3.69999 120.2 4.39999 119.9 5.19999C119.6 5.99999 119.3 6.79999 119 7.59999C118.7 8.39999 118.4 9.19999 118.2 9.79999C117.4 9.79999 116.8 9.89999 116.4 10.1C115.9 10.3 115.6 10.6 115.3 10.9C115.1 11.2 114.9 11.6 114.8 12C114.7 12.4 114.7 12.8 114.6 13.3L114.5 15.9C114.5 16.1 114.5 16.3 114.6 16.4C114.7 16.5 114.8 16.6 115.1 16.6H117.7C117.5 19 117.4 21 117.2 22.6C117.1 24.2 116.9 25.6 116.8 26.7C116.7 27.8 116.6 28.7 116.6 29.4C116.6 30.1 116.5 30.7 116.5 31.2C116.5 33.5 117.1 35.2 118.2 36.4C119.3 37.5 121.1 38.1 123.5 38.1C125.9 38.1 127.6 37.6 128.6 36.5C129.6 35.4 130.1 34 130.1 32.1C130.1 31.1 130 30.5 129.8 30.2C129.6 29.9 129.4 29.8 129.2 29.8C129 29.8 128.8 29.9 128.6 30C128.4 30.1 128.2 30.3 128 30.5C127.8 30.6 127.6 30.8 127.4 30.9L127.3 33C127.3 33.1 127.2 33.3 127 33.2C126.9 33.2 126.8 33.1 126.8 32.9L126.9 31.1C126.7 31.1 126.5 31.2 126.3 31.2C126.1 31.2 126 31.2 125.8 31.1L124.8 32.7C124.7 32.8 124.6 32.9 124.4 32.8C124.3 32.7 124.2 32.6 124.3 32.4L125.3 30.8L125.2 30.7C125.1 30.5 125 30.3 125 29.9L123.4 30.9C123.3 31 123.1 30.9 123.1 30.8C123 30.7 123.1 30.5 123.2 30.4L125 29.3C125 29.2 125 29.1 125 29C125 28.5 125 27.9 125.1 27C125.2 26.1 125.2 25.1 125.3 24C125.4 22.9 125.5 21.7 125.6 20.5C125.7 19.3 125.8 18 125.9 16.7H128.5C128.6 16.7 128.7 16.7 128.8 16.7H128.9H131.5C131.3 19.1 131.2 21.1 131 22.7C130.9 24.3 130.7 25.7 130.6 26.8C130.5 27.9 130.4 28.8 130.4 29.5C130.3 30.2 130.3 30.8 130.3 31.3C130.3 33.6 130.9 35.3 132 36.5C133.1 37.6 134.9 38.2 137.3 38.2C139.7 38.2 141.4 37.7 142.4 36.6C143.4 35.5 143.9 34.1 143.9 32.2C143.9 31.2 143.8 30.6 143.6 30.3C143.4 30 143.2 29.9 143 29.9C142.8 29.9 142.6 30 142.4 30.1C142.2 30.2 142 30.4 141.8 30.6C141.6 30.7 141.4 30.9 141.2 31L141.1 33.1C141.1 33.2 141 33.4 140.8 33.3C140.7 33.3 140.6 33.2 140.6 33L140.7 31.2C140.5 31.2 140.3 31.3 140.1 31.3C139.9 31.3 139.8 31.3 139.6 31.2L138.6 32.8C138.5 32.9 138.4 33 138.2 32.9C138.1 32.8 138 32.7 138.1 32.5L139.1 30.9L139 30.8C138.9 30.6 138.8 30.4 138.8 30L137.2 31C137.1 31.1 136.9 31 136.9 30.9C136.8 30.8 136.9 30.6 137 30.5L138.8 29.4C138.8 29.3 138.8 29.2 138.8 29.1C138.8 28.6 138.8 28 138.9 27.1C138.9 26.2 139 25.2 139.1 24.1C139.2 23 139.3 21.8 139.4 20.6C139.5 19.4 139.6 18.1 139.7 16.8H142.3C143.8 16.8 144.8 16.5 145.2 15.9C145.7 15.3 146 14.5 146 13.5L146.2 10.8C146.5 9.99999 146.2 9.79999 145.7 9.79999Z" fill="white"/>
<path d="M55.1 11.5C54.4 10.8 53.4 10.3 52.2 9.9C51 9.5 49.6 9.3 47.8 9.3C45.7 9.3 43.8 9.6 42.3 10.2C40.8 10.8 39.4 11.6 38.3 12.6C37.2 13.6 36.3 14.7 35.7 15.9C35 17.1 34.5 18.4 34.1 19.6C33.7 20.8 33.5 22 33.3 23.2C33.2 24.4 33.1 25.4 33.1 26.2C33.1 28.5 33.5 30.4 34.2 31.9C34.9 33.4 35.9 34.6 37 35.5C38.1 36.4 39.4 37 40.9 37.4C42.3 37.8 43.8 38 45.2 38C46.3 38 47.4 37.9 48.6 37.7C49.8 37.5 50.8 37.2 51.7 36.7C52.6 36.3 53.4 35.7 54 35C54.6 34.3 54.9 33.5 54.9 32.5C54.9 31.8 54.7 31.2 54.4 30.7C54.1 30.2 53.7 29.9 53.3 29.6C52.9 29.3 52.5 29.2 52 29.1C51.6 29 51.3 29 51.1 29C50.7 29 50.4 29.1 50.2 29.4C50 29.7 49.7 30 49.4 30.4C49.1 30.8 48.7 31.1 48.2 31.4C47.7 31.7 47.1 31.8 46.2 31.8C45.3 31.8 44.6 31.6 44 31.3C43.4 31 42.9 30.6 42.6 30.1C42.2 29.6 42 29.1 41.8 28.5C41.6 27.9 41.5 27.3 41.5 26.6C42 26.6 42.8 26.6 43.7 26.5C44.7 26.4 45.7 26.3 46.9 26.1C48.1 25.9 49.2 25.6 50.4 25.2C51.6 24.8 52.7 24.2 53.6 23.5C54.6 22.8 55.4 21.9 56 20.8C56.6 19.7 56.9 18.4 56.9 16.9C56.9 15.9 56.7 14.9 56.4 14C56.4 13 55.8 12.2 55.1 11.5ZM46.8 21.4C45.5 22.1 43.9 22.4 41.8 22.5C41.9 21.8 42 21.1 42.2 20.3C42.4 19.5 42.6 18.8 43 18.2C43.3 17.6 43.8 17 44.3 16.6C44.8 16.2 45.4 16 46.2 16C47.1 16 47.7 16.3 48.1 16.8C48.5 17.3 48.7 17.9 48.7 18.6C48.7 19.8 48.1 20.8 46.8 21.4Z" fill="white"/>
<path d="M55.1 11.5C54.4 10.8 53.4 10.3 52.2 9.9C51 9.5 49.6 9.3 47.8 9.3C45.7 9.3 43.8 9.6 42.3 10.2C40.8 10.8 39.4 11.6 38.3 12.6C37.2 13.6 36.3 14.7 35.7 15.9C35 17.1 34.5 18.4 34.1 19.6C33.7 20.8 33.5 22 33.3 23.2C33.2 24.4 33.1 25.4 33.1 26.2C33.1 28.5 33.5 30.4 34.2 31.9C34.9 33.4 35.9 34.6 37 35.5C38.1 36.4 39.4 37 40.9 37.4C42.3 37.8 43.8 38 45.2 38C46.3 38 47.4 37.9 48.6 37.7C49.8 37.5 50.8 37.2 51.7 36.7C52.6 36.3 53.4 35.7 54 35C54.6 34.3 54.9 33.5 54.9 32.5C54.9 31.8 54.7 31.2 54.4 30.7C54.1 30.2 53.7 29.9 53.3 29.6C52.9 29.3 52.5 29.2 52 29.1C51.6 29 51.3 29 51.1 29C50.7 29 50.4 29.1 50.2 29.4C50 29.7 49.7 30 49.4 30.4C49.1 30.8 48.7 31.1 48.2 31.4C47.7 31.7 47.1 31.8 46.2 31.8C45.3 31.8 44.6 31.6 44 31.3C43.4 31 42.9 30.6 42.6 30.1C42.2 29.6 42 29.1 41.8 28.5C41.6 27.9 41.5 27.3 41.5 26.6C42 26.6 42.8 26.6 43.7 26.5C44.7 26.4 45.7 26.3 46.9 26.1C48.1 25.9 49.2 25.6 50.4 25.2C51.6 24.8 52.7 24.2 53.6 23.5C54.6 22.8 55.4 21.9 56 20.8C56.6 19.7 56.9 18.4 56.9 16.9C56.9 15.9 56.7 14.9 56.4 14C56.4 13 55.8 12.2 55.1 11.5ZM46.8 21.4C45.5 22.1 43.9 22.4 41.8 22.5C41.9 21.8 42 21.1 42.2 20.3C42.4 19.5 42.6 18.8 43 18.2C43.3 17.6 43.8 17 44.3 16.6C44.8 16.2 45.4 16 46.2 16C47.1 16 47.7 16.3 48.1 16.8C48.5 17.3 48.7 17.9 48.7 18.6C48.7 19.8 48.1 20.8 46.8 21.4Z" fill="url(#paint0_linear_10_2)"/>
<path d="M23 9.3C21.2 9.3 19.7 9.6 18.5 10.3C17.3 11 16.3 12.1 15.6 13.6C15.6 12.6 15.2 11.7 14.4 10.9C13.6 10.1 12.3 9.8 10.5 9.8H8.59999C8.19999 9.8 7.89999 9.8 7.79999 9.9C7.69999 10 7.59999 10.5 7.59999 11.2C7.49999 11.8 7.39999 13 7.29999 14.7C7.19999 16.4 6.99999 18.3 6.89999 20.5C6.69999 22.7 6.59999 24.9 6.39999 27.3C6.19999 29.7 6.09999 31.9 5.89999 34C5.79999 36.1 5.59999 37.8 5.49999 39.3C5.39999 40.8 5.39999 41.7 5.39999 42C5.39999 42.8 5.49999 43.4 5.59999 44C5.69999 44.6 5.99999 45.1 6.39999 45.5C6.79999 45.9 7.29999 46.2 7.89999 46.4C8.49999 46.6 9.39999 46.7 10.4 46.7H12.2C12.6 46.7 12.9 46.6 13 46.5C13.1 46.4 13.2 46.1 13.2 45.7C13.3 44.2 13.4 42.9 13.5 42.1C13.6 41.2 13.6 40.5 13.7 40C13.7 39.5 13.8 39.1 13.8 38.8C13.8 38.5 13.8 38.2 13.9 37.8C13.9 37.4 14 36.9 14 36.3C14.1 35.7 14.1 34.7 14.2 33.5C14.8 34.9 15.5 36 16.5 36.8C17.5 37.6 18.9 38 20.6 38C22.2 38 23.8 37.6 25.2 36.9C26.6 36.2 27.9 35.1 28.9 33.7C30 32.3 30.8 30.5 31.4 28.5C32 26.5 32.3 24.1 32.3 21.5C32.3 17.3 31.5 14.2 30 12.3C28.4 10.2 26.1 9.3 23 9.3ZM22 29.1C21 30.5 19.9 31.2 18.4 31.2C17.6 31.2 17 31 16.4 30.6C15.9 30.2 15.5 29.7 15.2 29C14.9 28.3 14.7 27.6 14.6 26.7C14.5 25.9 14.4 25 14.4 24.1C14.4 21.6 14.8 19.5 15.6 18.1C16.4 16.6 17.6 15.9 19.3 15.9C20.1 15.9 20.8 16.1 21.3 16.5C21.8 16.9 22.2 17.4 22.5 18C22.8 18.6 23 19.3 23.1 20.1C23.2 20.9 23.3 21.7 23.3 22.5C23.4 25.5 23 27.7 22 29.1Z" fill="white"/>
<path d="M23 9.3C21.2 9.3 19.7 9.6 18.5 10.3C17.3 11 16.3 12.1 15.6 13.6C15.6 12.6 15.2 11.7 14.4 10.9C13.6 10.1 12.3 9.8 10.5 9.8H8.59999C8.19999 9.8 7.89999 9.8 7.79999 9.9C7.69999 10 7.59999 10.5 7.59999 11.2C7.49999 11.8 7.39999 13 7.29999 14.7C7.19999 16.4 6.99999 18.3 6.89999 20.5C6.69999 22.7 6.59999 24.9 6.39999 27.3C6.19999 29.7 6.09999 31.9 5.89999 34C5.79999 36.1 5.59999 37.8 5.49999 39.3C5.39999 40.8 5.39999 41.7 5.39999 42C5.39999 42.8 5.49999 43.4 5.59999 44C5.69999 44.6 5.99999 45.1 6.39999 45.5C6.79999 45.9 7.29999 46.2 7.89999 46.4C8.49999 46.6 9.39999 46.7 10.4 46.7H12.2C12.6 46.7 12.9 46.6 13 46.5C13.1 46.4 13.2 46.1 13.2 45.7C13.3 44.2 13.4 42.9 13.5 42.1C13.6 41.2 13.6 40.5 13.7 40C13.7 39.5 13.8 39.1 13.8 38.8C13.8 38.5 13.8 38.2 13.9 37.8C13.9 37.4 14 36.9 14 36.3C14.1 35.7 14.1 34.7 14.2 33.5C14.8 34.9 15.5 36 16.5 36.8C17.5 37.6 18.9 38 20.6 38C22.2 38 23.8 37.6 25.2 36.9C26.6 36.2 27.9 35.1 28.9 33.7C30 32.3 30.8 30.5 31.4 28.5C32 26.5 32.3 24.1 32.3 21.5C32.3 17.3 31.5 14.2 30 12.3C28.4 10.2 26.1 9.3 23 9.3ZM22 29.1C21 30.5 19.9 31.2 18.4 31.2C17.6 31.2 17 31 16.4 30.6C15.9 30.2 15.5 29.7 15.2 29C14.9 28.3 14.7 27.6 14.6 26.7C14.5 25.9 14.4 25 14.4 24.1C14.4 21.6 14.8 19.5 15.6 18.1C16.4 16.6 17.6 15.9 19.3 15.9C20.1 15.9 20.8 16.1 21.3 16.5C21.8 16.9 22.2 17.4 22.5 18C22.8 18.6 23 19.3 23.1 20.1C23.2 20.9 23.3 21.7 23.3 22.5C23.4 25.5 23 27.7 22 29.1Z" fill="url(#paint1_linear_10_2)"/>
<path d="M77.9 11.2C77.4 10.7 76.8 10.4 76.1 10.1C75.5 9.9 74.8 9.7 74.2 9.7C73.7 9.7 73.1 9.8 72.5 9.9C71.9 10 71.3 10.3 70.7 10.7C70.1 11.1 69.5 11.5 69 12.1C68.5 12.7 68 13.3 67.6 14.1C67.5 13.6 67.4 13.1 67.2 12.6C67 12.1 66.7 11.7 66.3 11.4C65.9 11 65.4 10.8 64.8 10.6C64.2 10.4 63.4 10.3 62.5 10.3H60.6C60 10.3 59.6 10.8 59.6 11.8C59.3 15.5 59.1 18.6 58.9 21.1C58.7 23.6 58.6 25.7 58.4 27.3C58.3 28.9 58.2 30.2 58.1 31.1C58.1 32 58 32.7 58 33.2C58 34 58.1 34.6 58.2 35.2C58.3 35.8 58.6 36.3 59 36.7C59.4 37.1 59.9 37.4 60.5 37.6C61.1 37.8 62 37.9 63 37.9H64.8C65.1 37.9 65.3 37.8 65.5 37.6C65.7 37.4 65.8 37.2 65.8 36.8C65.8 36.5 65.8 35.9 65.9 34.9C66 33.9 66 32.8 66.1 31.6C66.2 30.3 66.3 29 66.4 27.7C66.5 26.3 66.6 25.1 66.7 24.1C66.9 21.7 67.3 19.8 67.9 18.6C68.5 17.4 69.3 16.8 70.2 16.8C70.8 16.8 71.2 17 71.4 17.5C71.6 18 71.7 18.6 71.7 19.3C71.7 19.7 71.7 20.1 71.7 20.5C71.7 20.9 71.6 21.3 71.6 21.7C71.6 21.8 71.7 21.9 71.8 22C72 22.1 72.2 22.2 72.4 22.2C72.6 22.2 72.9 22.3 73.1 22.3C73.3 22.3 73.6 22.3 73.8 22.3C74.7 22.3 75.4 22.1 76.1 21.8C76.8 21.4 77.4 21 77.9 20.3C78.4 19.7 78.8 19 79 18.2C79.3 17.4 79.4 16.5 79.4 15.6C79.4 14.6 79.2 13.7 78.9 13C78.9 12.2 78.5 11.6 77.9 11.2Z" fill="white"/>
<path d="M77.9 11.2C77.4 10.7 76.8 10.4 76.1 10.1C75.5 9.9 74.8 9.7 74.2 9.7C73.7 9.7 73.1 9.8 72.5 9.9C71.9 10 71.3 10.3 70.7 10.7C70.1 11.1 69.5 11.5 69 12.1C68.5 12.7 68 13.3 67.6 14.1C67.5 13.6 67.4 13.1 67.2 12.6C67 12.1 66.7 11.7 66.3 11.4C65.9 11 65.4 10.8 64.8 10.6C64.2 10.4 63.4 10.3 62.5 10.3H60.6C60 10.3 59.6 10.8 59.6 11.8C59.3 15.5 59.1 18.6 58.9 21.1C58.7 23.6 58.6 25.7 58.4 27.3C58.3 28.9 58.2 30.2 58.1 31.1C58.1 32 58 32.7 58 33.2C58 34 58.1 34.6 58.2 35.2C58.3 35.8 58.6 36.3 59 36.7C59.4 37.1 59.9 37.4 60.5 37.6C61.1 37.8 62 37.9 63 37.9H64.8C65.1 37.9 65.3 37.8 65.5 37.6C65.7 37.4 65.8 37.2 65.8 36.8C65.8 36.5 65.8 35.9 65.9 34.9C66 33.9 66 32.8 66.1 31.6C66.2 30.3 66.3 29 66.4 27.7C66.5 26.3 66.6 25.1 66.7 24.1C66.9 21.7 67.3 19.8 67.9 18.6C68.5 17.4 69.3 16.8 70.2 16.8C70.8 16.8 71.2 17 71.4 17.5C71.6 18 71.7 18.6 71.7 19.3C71.7 19.7 71.7 20.1 71.7 20.5C71.7 20.9 71.6 21.3 71.6 21.7C71.6 21.8 71.7 21.9 71.8 22C72 22.1 72.2 22.2 72.4 22.2C72.6 22.2 72.9 22.3 73.1 22.3C73.3 22.3 73.6 22.3 73.8 22.3C74.7 22.3 75.4 22.1 76.1 21.8C76.8 21.4 77.4 21 77.9 20.3C78.4 19.7 78.8 19 79 18.2C79.3 17.4 79.4 16.5 79.4 15.6C79.4 14.6 79.2 13.7 78.9 13C78.9 12.2 78.5 11.6 77.9 11.2Z" fill="url(#paint2_linear_10_2)"/>
<path d="M104.5 3.80001C104.2 3.10001 103.6 2.40001 102.9 1.90001C102.2 1.40001 101.2 0.900006 100.1 0.600006C98.9 0.300006 97.5 0.100006 95.9 0.100006C94.2 0.100006 92.7 0.300006 91.3 0.700006C89.9 1.10001 88.8 1.70001 87.8 2.60001C86.8 3.50001 86 4.70001 85.4 6.10001C84.8 7.60001 84.4 9.40001 84.2 11.6L84 13.6C83.3 13.6 82.7 13.8 82.3 14C81.9 14.2 81.6 14.5 81.3 14.8C81.1 15.1 80.9 15.5 80.9 15.9C80.8 16.3 80.8 16.7 80.7 17.1C80.7 17.6 80.6 18.1 80.6 18.6C80.6 19.1 80.6 19.5 80.6 19.8C80.6 20.2 80.8 20.4 81.1 20.4H83.4C83.3 21.8 83.2 23.1 83.1 24.5C83 25.9 82.9 27.1 82.8 28.2C82.7 29.3 82.7 30.3 82.6 31.1C82.5 31.9 82.5 32.4 82.5 32.6C82.5 34.3 82.9 35.6 83.6 36.4C84.3 37.3 85.6 37.7 87.3 37.7H89.1C89.5 37.7 89.8 37.6 89.9 37.5C90 37.4 90.1 37.1 90.1 36.7C90.1 36.7 90.1 36.4 90.2 35.8C90.3 35.2 90.3 34.5 90.4 33.6C90.5 32.7 90.5 31.7 90.6 30.6C90.7 29.5 90.8 28.3 90.9 27.1C91 25.9 91.1 24.7 91.2 23.6C91.3 22.4 91.4 21.3 91.4 20.3H94.4C95.9 20.3 96.9 20 97.3 19.4C97.8 18.8 98 18 98.1 17L98.3 14.3C98.3 13.8 98 13.6 97.5 13.6H92C92.1 12.7 92.2 11.9 92.4 11C92.5 10.2 92.8 9.40001 93.1 8.80001C93.4 8.10001 93.8 7.60001 94.2 7.20001C94.7 6.80001 95.2 6.60001 95.9 6.60001C96.8 6.60001 97.3 6.90001 97.5 7.60001C97.7 8.20001 97.8 9.10001 97.8 10.2C97.8 10.5 97.9 10.7 98.1 10.8C98.3 10.9 98.6 10.9 99.1 10.9C100.9 10.9 102.4 10.5 103.4 9.80001C104.5 9.10001 105 7.80001 105 6.10001C105 5.30001 104.8 4.60001 104.5 3.80001Z" fill="white"/>
<path d="M104.5 3.80001C104.2 3.10001 103.6 2.40001 102.9 1.90001C102.2 1.40001 101.2 0.900006 100.1 0.600006C98.9 0.300006 97.5 0.100006 95.9 0.100006C94.2 0.100006 92.7 0.300006 91.3 0.700006C89.9 1.10001 88.8 1.70001 87.8 2.60001C86.8 3.50001 86 4.70001 85.4 6.10001C84.8 7.60001 84.4 9.40001 84.2 11.6L84 13.6C83.3 13.6 82.7 13.8 82.3 14C81.9 14.2 81.6 14.5 81.3 14.8C81.1 15.1 80.9 15.5 80.9 15.9C80.8 16.3 80.8 16.7 80.7 17.1C80.7 17.6 80.6 18.1 80.6 18.6C80.6 19.1 80.6 19.5 80.6 19.8C80.6 20.2 80.8 20.4 81.1 20.4H83.4C83.3 21.8 83.2 23.1 83.1 24.5C83 25.9 82.9 27.1 82.8 28.2C82.7 29.3 82.7 30.3 82.6 31.1C82.5 31.9 82.5 32.4 82.5 32.6C82.5 34.3 82.9 35.6 83.6 36.4C84.3 37.3 85.6 37.7 87.3 37.7H89.1C89.5 37.7 89.8 37.6 89.9 37.5C90 37.4 90.1 37.1 90.1 36.7C90.1 36.7 90.1 36.4 90.2 35.8C90.3 35.2 90.3 34.5 90.4 33.6C90.5 32.7 90.5 31.7 90.6 30.6C90.7 29.5 90.8 28.3 90.9 27.1C91 25.9 91.1 24.7 91.2 23.6C91.3 22.4 91.4 21.3 91.4 20.3H94.4C95.9 20.3 96.9 20 97.3 19.4C97.8 18.8 98 18 98.1 17L98.3 14.3C98.3 13.8 98 13.6 97.5 13.6H92C92.1 12.7 92.2 11.9 92.4 11C92.5 10.2 92.8 9.40001 93.1 8.80001C93.4 8.10001 93.8 7.60001 94.2 7.20001C94.7 6.80001 95.2 6.60001 95.9 6.60001C96.8 6.60001 97.3 6.90001 97.5 7.60001C97.7 8.20001 97.8 9.10001 97.8 10.2C97.8 10.5 97.9 10.7 98.1 10.8C98.3 10.9 98.6 10.9 99.1 10.9C100.9 10.9 102.4 10.5 103.4 9.80001C104.5 9.10001 105 7.80001 105 6.10001C105 5.30001 104.8 4.60001 104.5 3.80001Z" fill="url(#paint3_linear_10_2)"/>
<path d="M112.8 11.5C112.4 11.1 111.9 10.8 111.3 10.6C110.7 10.4 109.8 10.3 108.8 10.3H106.9C106.5 10.3 106.2 10.4 106.1 10.5C106 10.6 105.9 11.1 105.9 11.8C105.6 15.5 105.4 18.6 105.2 21.1C105 23.6 104.9 25.7 104.7 27.3C104.6 28.9 104.5 30.2 104.4 31.1C104.3 32 104.3 32.7 104.3 33.2C104.3 34 104.4 34.7 104.5 35.2C104.6 35.8 104.9 36.3 105.3 36.7C105.7 37.1 106.2 37.4 106.8 37.6C107.4 37.8 108.3 37.9 109.3 37.9H111.1C111.5 37.9 111.8 37.8 111.9 37.7C112 37.6 112.1 37.3 112.1 36.9C112.4 33.3 112.6 30.2 112.8 27.6C113 25 113.2 22.9 113.3 21.2C113.4 19.5 113.5 18.1 113.6 17.1C113.7 16.1 113.7 15.3 113.7 14.8C113.7 14.1 113.6 13.5 113.5 12.9C113.5 12.4 113.2 11.9 112.8 11.5Z" fill="white"/>
<path d="M112.8 11.5C112.4 11.1 111.9 10.8 111.3 10.6C110.7 10.4 109.8 10.3 108.8 10.3H106.9C106.5 10.3 106.2 10.4 106.1 10.5C106 10.6 105.9 11.1 105.9 11.8C105.6 15.5 105.4 18.6 105.2 21.1C105 23.6 104.9 25.7 104.7 27.3C104.6 28.9 104.5 30.2 104.4 31.1C104.3 32 104.3 32.7 104.3 33.2C104.3 34 104.4 34.7 104.5 35.2C104.6 35.8 104.9 36.3 105.3 36.7C105.7 37.1 106.2 37.4 106.8 37.6C107.4 37.8 108.3 37.9 109.3 37.9H111.1C111.5 37.9 111.8 37.8 111.9 37.7C112 37.6 112.1 37.3 112.1 36.9C112.4 33.3 112.6 30.2 112.8 27.6C113 25 113.2 22.9 113.3 21.2C113.4 19.5 113.5 18.1 113.6 17.1C113.7 16.1 113.7 15.3 113.7 14.8C113.7 14.1 113.6 13.5 113.5 12.9C113.5 12.4 113.2 11.9 112.8 11.5Z" fill="url(#paint4_linear_10_2)"/>
<path d="M105.9 4.3C105.9 6.4 107.2 7.5 109.9 7.5C111.6 7.5 113 7.1 113.9 6.3C114.8 5.5 115.3 4.4 115.3 3.2C115.3 2.2 115 1.4 114.3 0.9C113.7 0.3 112.6 0 111.2 0C109.6 0 108.3 0.4 107.3 1.2C106.3 1.9 105.9 3 105.9 4.3Z" fill="white"/>
<path d="M105.9 4.3C105.9 6.4 107.2 7.5 109.9 7.5C111.6 7.5 113 7.1 113.9 6.3C114.8 5.5 115.3 4.4 115.3 3.2C115.3 2.2 115 1.4 114.3 0.9C113.7 0.3 112.6 0 111.2 0C109.6 0 108.3 0.4 107.3 1.2C106.3 1.9 105.9 3 105.9 4.3Z" fill="url(#paint5_linear_10_2)"/>
<path d="M145.7 9.79999H140.5C140.6 8.49999 140.7 7.49999 140.7 6.79999C140.7 5.59999 140.4 4.59999 139.9 3.69999C139.4 2.79999 138.4 2.39999 137 2.39999H135.6C135.4 2.39999 135.1 2.69999 134.8 3.19999C134.5 3.69999 134.2 4.39999 133.9 5.19999C133.6 5.99999 133.3 6.79999 133 7.59999C132.7 8.39999 132.4 9.19999 132.2 9.79999C132.1 9.79999 132 9.79999 131.9 9.79999H131.8H126.6C126.7 8.49999 126.7 7.49999 126.7 6.79999C126.7 5.59999 126.4 4.59999 125.9 3.69999C125.4 2.79999 124.4 2.39999 123 2.39999H121.6C121.4 2.39999 121.1 2.69999 120.8 3.19999C120.5 3.69999 120.2 4.39999 119.9 5.19999C119.6 5.99999 119.3 6.79999 119 7.59999C118.7 8.39999 118.4 9.19999 118.2 9.79999C117.4 9.79999 116.8 9.89999 116.4 10.1C115.9 10.3 115.6 10.6 115.3 10.9C115.1 11.2 114.9 11.6 114.8 12C114.7 12.4 114.7 12.8 114.6 13.3L114.5 15.9C114.5 16.1 114.5 16.3 114.6 16.4C114.7 16.5 114.8 16.6 115.1 16.6H117.7C117.5 19 117.4 21 117.2 22.6C117 24.2 116.9 25.6 116.8 26.7C116.7 27.8 116.6 28.7 116.6 29.4C116.6 30.1 116.5 30.7 116.5 31.2C116.5 33.5 117.1 35.2 118.2 36.4C119.3 37.5 121.1 38.1 123.5 38.1C125.9 38.1 127.6 37.6 128.6 36.5C129.6 35.4 130.1 34 130.1 32.1C130.1 31.1 130 30.5 129.8 30.2C129.6 29.9 129.4 29.8 129.2 29.8C129 29.8 128.8 29.9 128.6 30C128.4 30.1 128.2 30.3 128 30.5C127.8 30.6 127.6 30.8 127.4 30.9L127.3 33C127.3 33.1 127.2 33.3 127 33.2C126.9 33.2 126.8 33.1 126.8 32.9L126.9 31.1C126.7 31.1 126.5 31.2 126.3 31.2C126.1 31.2 126 31.2 125.8 31.1L124.8 32.7C124.7 32.8 124.6 32.9 124.4 32.8C124.3 32.7 124.2 32.6 124.3 32.4L125.3 30.8L125.2 30.7C125.1 30.5 125 30.3 125 29.9L123.4 30.9C123.3 31 123.1 30.9 123.1 30.8C123 30.7 123.1 30.5 123.2 30.4L125 29.3C125 29.2 125 29.1 125 29C125 28.5 125 27.9 125.1 27C125.2 26.1 125.2 25.1 125.3 24C125.4 22.9 125.5 21.7 125.6 20.5C125.7 19.3 125.8 18 125.9 16.7H128.5C128.6 16.7 128.7 16.7 128.8 16.7H128.9H131.5C131.3 19.1 131.2 21.1 131 22.7C130.9 24.3 130.7 25.7 130.6 26.8C130.5 27.9 130.4 28.8 130.4 29.5C130.3 30.2 130.3 30.8 130.3 31.3C130.3 33.6 130.9 35.3 132 36.5C133.1 37.6 134.9 38.2 137.3 38.2C139.7 38.2 141.4 37.7 142.4 36.6C143.4 35.5 143.9 34.1 143.9 32.2C143.9 31.2 143.8 30.6 143.6 30.3C143.4 30 143.2 29.9 143 29.9C142.8 29.9 142.6 30 142.4 30.1C142.2 30.2 142 30.4 141.8 30.6C141.6 30.7 141.4 30.9 141.2 31L141.1 33.1C141.1 33.2 141 33.4 140.8 33.3C140.7 33.3 140.6 33.2 140.6 33L140.7 31.2C140.5 31.2 140.3 31.3 140.1 31.3C139.9 31.3 139.8 31.3 139.6 31.2L138.6 32.8C138.5 32.9 138.4 33 138.2 32.9C138.1 32.8 138 32.7 138.1 32.5L139.1 30.9L139 30.8C138.9 30.6 138.8 30.4 138.8 30L137.2 31C137.1 31.1 136.9 31 136.9 30.9C136.8 30.8 136.9 30.6 137 30.5L138.8 29.4C138.8 29.3 138.8 29.2 138.8 29.1C138.8 28.6 138.8 28 138.9 27.1C138.9 26.2 139 25.2 139.1 24.1C139.2 23 139.3 21.8 139.4 20.6C139.5 19.4 139.6 18.1 139.7 16.8H142.3C143.8 16.8 144.8 16.5 145.2 15.9C145.7 15.3 146 14.5 146 13.5L146.2 10.8C146.5 9.99999 146.2 9.79999 145.7 9.79999Z" fill="white"/>
<path d="M145.7 9.79999H140.5C140.6 8.49999 140.7 7.49999 140.7 6.79999C140.7 5.59999 140.4 4.59999 139.9 3.69999C139.4 2.79999 138.4 2.39999 137 2.39999H135.6C135.4 2.39999 135.1 2.69999 134.8 3.19999C134.5 3.69999 134.2 4.39999 133.9 5.19999C133.6 5.99999 133.3 6.79999 133 7.59999C132.7 8.39999 132.4 9.19999 132.2 9.79999C132.1 9.79999 132 9.79999 131.9 9.79999H131.8H126.6C126.7 8.49999 126.7 7.49999 126.7 6.79999C126.7 5.59999 126.4 4.59999 125.9 3.69999C125.4 2.79999 124.4 2.39999 123 2.39999H121.6C121.4 2.39999 121.1 2.69999 120.8 3.19999C120.5 3.69999 120.2 4.39999 119.9 5.19999C119.6 5.99999 119.3 6.79999 119 7.59999C118.7 8.39999 118.4 9.19999 118.2 9.79999C117.4 9.79999 116.8 9.89999 116.4 10.1C115.9 10.3 115.6 10.6 115.3 10.9C115.1 11.2 114.9 11.6 114.8 12C114.7 12.4 114.7 12.8 114.6 13.3L114.5 15.9C114.5 16.1 114.5 16.3 114.6 16.4C114.7 16.5 114.8 16.6 115.1 16.6H117.7C117.5 19 117.4 21 117.2 22.6C117 24.2 116.9 25.6 116.8 26.7C116.7 27.8 116.6 28.7 116.6 29.4C116.6 30.1 116.5 30.7 116.5 31.2C116.5 33.5 117.1 35.2 118.2 36.4C119.3 37.5 121.1 38.1 123.5 38.1C125.9 38.1 127.6 37.6 128.6 36.5C129.6 35.4 130.1 34 130.1 32.1C130.1 31.1 130 30.5 129.8 30.2C129.6 29.9 129.4 29.8 129.2 29.8C129 29.8 128.8 29.9 128.6 30C128.4 30.1 128.2 30.3 128 30.5C127.8 30.6 127.6 30.8 127.4 30.9L127.3 33C127.3 33.1 127.2 33.3 127 33.2C126.9 33.2 126.8 33.1 126.8 32.9L126.9 31.1C126.7 31.1 126.5 31.2 126.3 31.2C126.1 31.2 126 31.2 125.8 31.1L124.8 32.7C124.7 32.8 124.6 32.9 124.4 32.8C124.3 32.7 124.2 32.6 124.3 32.4L125.3 30.8L125.2 30.7C125.1 30.5 125 30.3 125 29.9L123.4 30.9C123.3 31 123.1 30.9 123.1 30.8C123 30.7 123.1 30.5 123.2 30.4L125 29.3C125 29.2 125 29.1 125 29C125 28.5 125 27.9 125.1 27C125.2 26.1 125.2 25.1 125.3 24C125.4 22.9 125.5 21.7 125.6 20.5C125.7 19.3 125.8 18 125.9 16.7H128.5C128.6 16.7 128.7 16.7 128.8 16.7H128.9H131.5C131.3 19.1 131.2 21.1 131 22.7C130.9 24.3 130.7 25.7 130.6 26.8C130.5 27.9 130.4 28.8 130.4 29.5C130.3 30.2 130.3 30.8 130.3 31.3C130.3 33.6 130.9 35.3 132 36.5C133.1 37.6 134.9 38.2 137.3 38.2C139.7 38.2 141.4 37.7 142.4 36.6C143.4 35.5 143.9 34.1 143.9 32.2C143.9 31.2 143.8 30.6 143.6 30.3C143.4 30 143.2 29.9 143 29.9C142.8 29.9 142.6 30 142.4 30.1C142.2 30.2 142 30.4 141.8 30.6C141.6 30.7 141.4 30.9 141.2 31L141.1 33.1C141.1 33.2 141 33.4 140.8 33.3C140.7 33.3 140.6 33.2 140.6 33L140.7 31.2C140.5 31.2 140.3 31.3 140.1 31.3C139.9 31.3 139.8 31.3 139.6 31.2L138.6 32.8C138.5 32.9 138.4 33 138.2 32.9C138.1 32.8 138 32.7 138.1 32.5L139.1 30.9L139 30.8C138.9 30.6 138.8 30.4 138.8 30L137.2 31C137.1 31.1 136.9 31 136.9 30.9C136.8 30.8 136.9 30.6 137 30.5L138.8 29.4C138.8 29.3 138.8 29.2 138.8 29.1C138.8 28.6 138.8 28 138.9 27.1C138.9 26.2 139 25.2 139.1 24.1C139.2 23 139.3 21.8 139.4 20.6C139.5 19.4 139.6 18.1 139.7 16.8H142.3C143.8 16.8 144.8 16.5 145.2 15.9C145.7 15.3 146 14.5 146 13.5L146.2 10.8C146.5 9.99999 146.2 9.79999 145.7 9.79999Z" fill="url(#paint6_linear_10_2)"/>
</g>
<defs>
<linearGradient id="paint0_linear_10_2" x1="3.34312e-06" y1="23.5852" x2="150" y2="23.5852" gradientUnits="userSpaceOnUse">
<stop stop-color="#12C2E9"/>
<stop offset="0.5" stop-color="#C471ED"/>
<stop offset="1" stop-color="#F64F59"/>
</linearGradient>
<linearGradient id="paint1_linear_10_2" x1="-5.91892e-06" y1="27.9934" x2="150" y2="27.9934" gradientUnits="userSpaceOnUse">
<stop stop-color="#12C2E9"/>
<stop offset="0.5" stop-color="#C471ED"/>
<stop offset="1" stop-color="#F64F59"/>
</linearGradient>
<linearGradient id="paint2_linear_10_2" x1="-2.04661e-06" y1="23.8353" x2="150" y2="23.8353" gradientUnits="userSpaceOnUse">
<stop stop-color="#12C2E9"/>
<stop offset="0.5" stop-color="#C471ED"/>
<stop offset="1" stop-color="#F64F59"/>
</linearGradient>
<linearGradient id="paint3_linear_10_2" x1="-2.74575e-05" y1="19.0583" x2="150" y2="19.0583" gradientUnits="userSpaceOnUse">
<stop stop-color="#12C2E9"/>
<stop offset="0.5" stop-color="#C471ED"/>
<stop offset="1" stop-color="#F64F59"/>
</linearGradient>
<linearGradient id="paint4_linear_10_2" x1="5.59678e-05" y1="24.0872" x2="150" y2="24.0872" gradientUnits="userSpaceOnUse">
<stop stop-color="#12C2E9"/>
<stop offset="0.5" stop-color="#C471ED"/>
<stop offset="1" stop-color="#F64F59"/>
</linearGradient>
<linearGradient id="paint5_linear_10_2" x1="-1.40917e-05" y1="3.7711" x2="150" y2="3.7711" gradientUnits="userSpaceOnUse">
<stop stop-color="#12C2E9"/>
<stop offset="0.5" stop-color="#C471ED"/>
<stop offset="1" stop-color="#F64F59"/>
</linearGradient>
<linearGradient id="paint6_linear_10_2" x1="1.28459e-05" y1="20.14" x2="150" y2="20.14" gradientUnits="userSpaceOnUse">
<stop stop-color="#12C2E9"/>
<stop offset="0.5" stop-color="#C471ED"/>
<stop offset="1" stop-color="#F64F59"/>
</linearGradient>
<clipPath id="clip0_10_2">
<rect width="150" height="50" fill="white"/>
</clipPath>
</defs>
</svg>
