<svg width="30" height="30" viewBox="0 0 30 30" fill="none" xmlns="http://www.w3.org/2000/svg">
<path d="M29 14.2222C29.0053 16.2754 28.5256 18.3007 27.6 20.1333C26.5024 22.3294 24.8151 24.1765 22.7271 25.4678C20.6391 26.7591 18.2328 27.4435 15.7778 27.4444C13.7246 27.4498 11.6993 26.9701 9.86665 26.0444L1 29L3.95555 20.1333C3.02989 18.3007 2.5502 16.2754 2.55555 14.2222C2.5565 11.7672 3.24095 9.36091 4.53222 7.27289C5.8235 5.18487 7.67061 3.49759 9.86665 2.40004C11.6993 1.47438 13.7246 0.994691 15.7778 1.00004H16.5555C19.7978 1.17892 22.8603 2.54745 25.1564 4.8436C27.4526 7.13974 28.8211 10.2022 29 13.4445V14.2222Z" stroke="white" stroke-width="2" stroke-linecap="round" stroke-linejoin="round"/>
</svg>
