<svg width="16" height="16" viewBox="0 0 16 16" fill="none" xmlns="http://www.w3.org/2000/svg">
<path d="M16 8C16.0032 9.24222 15.713 10.4676 15.1529 11.5765C14.4889 12.9052 13.468 14.0227 12.2046 14.804C10.9413 15.5853 9.4854 15.9994 8 16C6.81462 16.0031 5.64453 15.7389 4.57647 15.2281C4.4768 15.1804 4.36469 15.1642 4.25618 15.185L0.723697 15.8614C0.376718 15.9278 0.0721397 15.6233 0.138584 15.2763L0.815034 11.7438C0.835813 11.6353 0.819568 11.5232 0.771899 11.4235C0.261074 10.3555 -0.0030638 9.18538 2.68122e-05 8C0.000601589 6.5146 0.414719 5.05869 1.19599 3.79536C1.97727 2.53202 3.09484 1.51114 4.42354 0.847083C5.53235 0.28702 6.75778 -0.003212 8 2.68122e-05H8.47059C10.4323 0.108254 12.2852 0.93627 13.6745 2.32553C15.0637 3.7148 15.8917 5.56768 16 7.52941V8Z" fill="url(#paint0_linear_910_596)"/>
<path d="M3.35 11.5C3.29667 11.5 3.24667 11.48 3.2 11.44C3.16 11.4 3.14 11.35 3.14 11.29C3.14 11.2633 3.14667 11.2333 3.16 11.2L5.57 4.75C5.59 4.68333 5.62667 4.62667 5.68 4.58C5.74 4.52667 5.82 4.5 5.92 4.5H7.01C7.11 4.5 7.18667 4.52667 7.24 4.58C7.29333 4.62667 7.33333 4.68333 7.36 4.75L9.77 11.2C9.77667 11.2333 9.78 11.2633 9.78 11.29C9.78 11.35 9.76 11.4 9.72 11.44C9.68 11.48 9.63333 11.5 9.58 11.5H8.71C8.61667 11.5 8.54667 11.48 8.5 11.44C8.46 11.3933 8.43333 11.35 8.42 11.31L7.95 10.09H4.98L4.51 11.31C4.49667 11.35 4.46667 11.3933 4.42 11.44C4.38 11.48 4.31333 11.5 4.22 11.5H3.35ZM5.33 8.94H7.6L6.46 5.85L5.33 8.94ZM10.9536 11.5C10.8869 11.5 10.8303 11.4767 10.7836 11.43C10.7369 11.3833 10.7136 11.3267 10.7136 11.26V4.74C10.7136 4.67333 10.7369 4.61667 10.7836 4.57C10.8303 4.52333 10.8869 4.5 10.9536 4.5H11.8936C11.9669 4.5 12.0236 4.52333 12.0636 4.57C12.1103 4.61667 12.1336 4.67333 12.1336 4.74V11.26C12.1336 11.3267 12.1103 11.3833 12.0636 11.43C12.0236 11.4767 11.9669 11.5 11.8936 11.5H10.9536Z" fill="white"/>
<defs>
<linearGradient id="paint0_linear_910_596" x1="-2.765e-09" y1="1.25823" x2="16" y2="14.7418" gradientUnits="userSpaceOnUse">
<stop stop-color="#12C2E9"/>
<stop offset="0.5" stop-color="#C471ED"/>
<stop offset="1" stop-color="#F64F59"/>
</linearGradient>
</defs>
</svg>
