<svg width="15" height="14" viewBox="0 0 15 14" fill="none" xmlns="http://www.w3.org/2000/svg">
<path d="M12.0417 11.375H3.29175C3.05968 11.375 2.83712 11.2828 2.67303 11.1187C2.50894 10.9546 2.41675 10.7321 2.41675 10.5V4.375C2.41675 4.14294 2.50894 3.92038 2.67303 3.75628C2.83712 3.59219 3.05968 3.5 3.29175 3.5H5.04143L5.91643 2.1875H9.41643L10.2914 3.5H12.0417C12.2738 3.5 12.4964 3.59219 12.6605 3.75628C12.8246 3.92038 12.9167 4.14294 12.9167 4.375V10.5C12.9167 10.7321 12.8246 10.9546 12.6605 11.1187C12.4964 11.2828 12.2738 11.375 12.0417 11.375Z" stroke="#A1A1AA" stroke-linecap="round" stroke-linejoin="round"/>
<path d="M7.66675 9.1875C8.75406 9.1875 9.6355 8.30606 9.6355 7.21875C9.6355 6.13144 8.75406 5.25 7.66675 5.25C6.57944 5.25 5.698 6.13144 5.698 7.21875C5.698 8.30606 6.57944 9.1875 7.66675 9.1875Z" stroke="#A1A1AA" stroke-linecap="round" stroke-linejoin="round"/>
</svg>
