<svg width="20" height="19" viewBox="0 0 20 19" fill="none" xmlns="http://www.w3.org/2000/svg">
<path d="M19 16.1111C19 16.6121 18.8276 17.0925 18.5207 17.4468C18.2138 17.801 17.7976 18 17.3636 18H2.63636C2.20237 18 1.78616 17.801 1.47928 17.4468C1.1724 17.0925 1 16.6121 1 16.1111V5.72222C1 5.22126 1.1724 4.74081 1.47928 4.38658C1.78616 4.03234 2.20237 3.83333 2.63636 3.83333H5.90909L7.54545 1H12.4545L14.0909 3.83333H17.3636C17.7976 3.83333 18.2138 4.03234 18.5207 4.38658C18.8276 4.74081 19 5.22126 19 5.72222V16.1111Z" stroke="#808080" stroke-width="1.5" stroke-linecap="round" stroke-linejoin="round"/>
<path d="M10 13C11.6569 13 13 11.6569 13 10C13 8.34315 11.6569 7 10 7C8.34315 7 7 8.34315 7 10C7 11.6569 8.34315 13 10 13Z" stroke="#808080" stroke-width="1.5" stroke-linecap="round" stroke-linejoin="round"/>
</svg>
