<svg width="18" height="18" viewBox="0 0 18 18" fill="none" xmlns="http://www.w3.org/2000/svg">
<g filter="url(#filter0_d_2941_1260)">
<path d="M15.3434 3.2377C14.9768 2.84531 14.5417 2.53404 14.0627 2.32168C13.5837 2.10931 13.0704 2 12.5519 2C12.0335 2 11.5201 2.10931 11.0411 2.32168C10.5621 2.53404 10.127 2.84531 9.76046 3.2377L8.99981 4.05166L8.23916 3.2377C7.49882 2.44548 6.4947 2.00041 5.44771 2.00041C4.40071 2.00041 3.39659 2.44548 2.65626 3.2377C1.91592 4.02993 1.5 5.10441 1.5 6.22479C1.5 7.34516 1.91592 8.41965 2.65626 9.21187L3.41691 10.0258L8.99981 16L14.5827 10.0258L15.3434 9.21187C15.71 8.81967 16.0009 8.354 16.1994 7.84146C16.3979 7.32893 16.5 6.77958 16.5 6.22479C16.5 5.67 16.3979 5.12064 16.1994 4.60811C16.0009 4.09557 15.71 3.6299 15.3434 3.2377Z" fill="white"/>
</g>
<defs>
<filter id="filter0_d_2941_1260" x="0.454268" y="0.954268" width="17.0915" height="16.0915" filterUnits="userSpaceOnUse" color-interpolation-filters="sRGB">
<feFlood flood-opacity="0" result="BackgroundImageFix"/>
<feColorMatrix in="SourceAlpha" type="matrix" values="0 0 0 0 0 0 0 0 0 0 0 0 0 0 0 0 0 0 127 0" result="hardAlpha"/>
<feOffset/>
<feGaussianBlur stdDeviation="0.522866"/>
<feComposite in2="hardAlpha" operator="out"/>
<feColorMatrix type="matrix" values="0 0 0 0 0 0 0 0 0 0 0 0 0 0 0 0 0 0 0.25 0"/>
<feBlend mode="normal" in2="BackgroundImageFix" result="effect1_dropShadow_2941_1260"/>
<feBlend mode="normal" in="SourceGraphic" in2="effect1_dropShadow_2941_1260" result="shape"/>
</filter>
</defs>
</svg>
